<?xml version="1.0" encoding="utf-8" standalone="no"?>
<!DOCTYPE svg PUBLIC "-//W3C//DTD SVG 1.1//EN"
  "http://www.w3.org/Graphics/SVG/1.1/DTD/svg11.dtd">
<!-- Created with matplotlib (https://matplotlib.org/) -->
<svg height="345.6pt" version="1.1" viewBox="0 0 460.8 345.6" width="460.8pt" xmlns="http://www.w3.org/2000/svg" xmlns:xlink="http://www.w3.org/1999/xlink">
 <defs>
  <style type="text/css">
*{stroke-linecap:butt;stroke-linejoin:round;}
  </style>
 </defs>
 <g id="figure_1">
  <g id="patch_1">
   <path d="M 0 345.6 
L 460.8 345.6 
L 460.8 0 
L 0 0 
z
" style="fill:#ffffff;"/>
  </g>
  <g id="axes_1">
   <g id="patch_2">
    <path d="M 57.6 307.584 
L 414.72 307.584 
L 414.72 41.472 
L 57.6 41.472 
z
" style="fill:#ffffff;"/>
   </g>
   <g id="PathCollection_1">
    <path clip-path="url(#pdbe952059b)" d="M 60.411969 307.584 
L 63.223937 307.584 
L 66.035906 307.584 
L 68.847874 307.584 
L 71.659843 307.584 
L 74.471811 307.584 
L 77.28378 307.584 
L 80.095748 307.584 
L 82.907717 307.584 
L 85.719685 307.584 
L 88.531654 307.584 
L 91.343622 307.584 
L 94.155591 307.584 
L 96.967559 307.584 
L 99.779528 307.584 
L 102.591496 307.584 
L 105.403465 307.584 
L 108.215433 307.584 
L 111.027402 307.584 
L 113.83937 307.584 
L 116.651339 307.584 
L 119.463307 307.584 
L 122.275276 307.584 
L 125.087244 307.584 
L 127.899213 307.584 
L 130.711181 307.584 
L 133.52315 307.584 
L 136.335118 307.584 
L 139.147087 307.584 
L 141.959055 307.584 
L 144.771024 307.584 
L 147.582992 307.584 
L 150.394961 307.584 
L 152.1396 307.584 
L 150.394961 306.143702 
L 149.339784 304.896 
L 147.582992 302.903781 
L 147.042534 302.208 
L 144.854075 299.52 
L 144.771024 299.420566 
L 142.804945 296.832 
L 141.959055 295.717367 
L 140.92179 294.144 
L 139.288469 291.456 
L 139.147087 291.194841 
L 138.075348 288.768 
L 137.114225 286.08 
L 136.373826 283.392 
L 136.335118 283.199479 
L 135.918521 280.704 
L 135.640038 278.016 
L 135.513168 275.328 
L 135.520656 272.64 
L 135.646943 269.952 
L 135.877826 267.264 
L 136.200378 264.576 
L 136.335118 263.663807 
L 136.666748 261.888 
L 137.262525 259.2 
L 137.956679 256.512 
L 138.756138 253.824 
L 139.147087 252.628327 
L 140.131257 251.136 
L 141.959055 248.970282 
L 144.771024 249.295199 
L 147.110835 251.136 
L 147.582992 251.456482 
L 149.704722 253.824 
L 150.394961 254.549703 
L 151.850287 256.512 
L 153.206929 258.33342 
L 153.774128 259.2 
L 155.473723 261.888 
L 156.018898 262.775146 
L 157.043582 264.576 
L 158.505004 267.264 
L 158.830866 267.892708 
L 159.82662 269.952 
L 161.009677 272.64 
L 161.642835 274.232467 
L 162.039073 275.328 
L 162.843739 278.016 
L 163.469293 280.704 
L 163.913244 283.392 
L 164.169604 286.08 
L 164.233435 288.768 
L 164.103429 291.456 
L 163.783038 294.144 
L 163.280431 296.832 
L 162.607501 299.52 
L 161.77803 302.208 
L 161.642835 302.58493 
L 160.385971 304.896 
L 158.830866 307.405011 
L 158.557637 307.584 
L 158.830866 307.584 
L 161.642835 307.584 
L 164.454803 307.584 
L 167.266772 307.584 
L 170.07874 307.584 
L 172.890709 307.584 
L 175.702677 307.584 
L 178.514646 307.584 
L 181.326614 307.584 
L 184.138583 307.584 
L 186.950551 307.584 
L 189.76252 307.584 
L 192.574488 307.584 
L 195.386457 307.584 
L 198.198425 307.584 
L 201.010394 307.584 
L 203.822362 307.584 
L 206.634331 307.584 
L 209.446299 307.584 
L 212.258268 307.584 
L 215.070236 307.584 
L 217.882205 307.584 
L 220.694173 307.584 
L 223.506142 307.584 
L 226.31811 307.584 
L 229.130079 307.584 
L 231.942047 307.584 
L 234.754016 307.584 
L 237.565984 307.584 
L 240.377953 307.584 
L 243.189921 307.584 
L 246.00189 307.584 
L 248.813858 307.584 
L 251.625827 307.584 
L 254.437795 307.584 
L 257.249764 307.584 
L 260.061732 307.584 
L 262.873701 307.584 
L 265.685669 307.584 
L 268.497638 307.584 
L 271.309606 307.584 
L 274.121575 307.584 
L 276.933543 307.584 
L 279.745512 307.584 
L 282.55748 307.584 
L 285.369449 307.584 
L 288.181417 307.584 
L 290.993386 307.584 
L 293.805354 307.584 
L 296.617323 307.584 
L 299.429291 307.584 
L 302.24126 307.584 
L 305.053228 307.584 
L 307.865197 307.584 
L 310.677165 307.584 
L 313.489134 307.584 
L 316.301102 307.584 
L 319.113071 307.584 
L 321.925039 307.584 
L 324.737008 307.584 
L 327.548976 307.584 
L 330.360945 307.584 
L 333.172913 307.584 
L 335.984882 307.584 
L 338.79685 307.584 
L 341.608819 307.584 
L 344.420787 307.584 
L 347.141655 307.584 
L 346.404819 304.896 
L 345.689948 302.208 
L 344.994298 299.52 
L 344.420787 297.245755 
L 344.343739 296.832 
L 343.865142 294.144 
L 343.403522 291.456 
L 342.962126 288.768 
L 342.546665 286.08 
L 342.165992 283.392 
L 341.833953 280.704 
L 341.608819 278.333034 
L 341.583818 278.016 
L 341.490375 275.328 
L 341.54234 272.64 
L 341.608819 271.901758 
L 342.044031 269.952 
L 344.310996 267.264 
L 344.420787 267.2063 
L 344.555693 267.264 
L 347.232756 268.149069 
L 350.044724 269.79785 
L 350.267046 269.952 
L 352.856693 271.734981 
L 354.138611 272.64 
L 355.668661 273.846365 
L 357.465965 275.328 
L 358.48063 276.423601 
L 359.833884 278.016 
L 361.181822 280.704 
L 361.292598 281.131761 
L 361.81607 283.392 
L 361.945559 286.08 
L 361.729802 288.768 
L 361.292598 291.38623 
L 361.282088 291.456 
L 360.68887 294.144 
L 360.011927 296.832 
L 359.306377 299.52 
L 358.617656 302.208 
L 358.48063 302.763443 
L 357.770672 304.896 
L 356.917921 307.584 
L 358.48063 307.584 
L 361.292598 307.584 
L 364.104567 307.584 
L 366.916535 307.584 
L 369.728504 307.584 
L 372.540472 307.584 
L 375.352441 307.584 
L 378.164409 307.584 
L 380.976378 307.584 
L 383.788346 307.584 
L 386.600315 307.584 
L 389.412283 307.584 
L 392.224252 307.584 
L 395.03622 307.584 
L 396.355223 307.584 
L 397.848189 306.820514 
L 400.660157 306.25705 
L 403.472126 306.177901 
L 406.284094 306.43504 
L 409.096063 307.112243 
L 410.229054 307.584 
L 411.908031 307.584 
L 414.72 307.584 
L 414.72 304.896 
L 414.72 302.208 
L 414.72 299.52 
L 414.72 296.832 
L 414.72 294.390103 
L 411.908031 295.973543 
L 409.096063 296.221227 
L 406.284094 295.519832 
L 403.561538 294.144 
L 403.472126 294.092428 
L 400.660157 291.576484 
L 400.548587 291.456 
L 399.016918 288.768 
L 398.313883 286.08 
L 398.087158 283.392 
L 398.161322 280.704 
L 398.438071 278.016 
L 398.856911 275.328 
L 399.380326 272.64 
L 399.996717 269.952 
L 400.660157 267.499943 
L 400.761841 267.264 
L 401.8413 264.576 
L 403.245527 261.888 
L 403.472126 261.145281 
L 406.284094 260.527729 
L 409.096063 261.595678 
L 409.543349 261.888 
L 411.908031 262.949848 
L 414.48615 264.576 
L 414.72 264.732451 
L 414.72 264.576 
L 414.72 261.888 
L 414.72 259.2 
L 414.72 256.512 
L 414.72 253.824 
L 414.72 251.136 
L 414.72 248.448 
L 414.72 245.76 
L 414.72 243.072 
L 414.72 240.384 
L 414.72 237.696 
L 414.72 237.614762 
L 414.70431 237.696 
L 413.995375 240.384 
L 413.100858 243.072 
L 412.004043 245.76 
L 411.908031 245.970916 
L 410.446711 248.448 
L 409.096063 250.636124 
L 408.680016 251.136 
L 406.688202 253.824 
L 406.284094 254.621839 
L 404.517845 256.512 
L 403.472126 258.158528 
L 400.660157 258.596815 
L 397.848189 258.731174 
L 395.45944 259.2 
L 395.03622 259.270305 
L 392.224252 260.267024 
L 389.412283 261.781123 
L 388.987794 261.888 
L 386.600315 262.708083 
L 385.645477 261.888 
L 384.257169 259.2 
L 383.877741 256.512 
L 383.923171 253.824 
L 384.206513 251.136 
L 384.661174 248.448 
L 385.270721 245.76 
L 386.048569 243.072 
L 386.600315 241.557263 
L 387.093991 240.384 
L 388.464938 237.696 
L 389.412283 236.177334 
L 390.183475 235.008 
L 392.224252 232.362768 
L 392.256441 232.32 
L 394.508065 229.632 
L 395.03622 229.058873 
L 396.874914 226.944 
L 397.848189 225.871166 
L 399.329695 224.256 
L 400.660157 222.766277 
L 401.843045 221.568 
L 403.472126 219.680561 
L 404.318708 218.88 
L 406.284094 216.415076 
L 406.547203 216.192 
L 408.681363 213.504 
L 409.096063 212.684245 
L 411.461395 210.816 
L 411.908031 210.320984 
L 412.371843 210.816 
L 414.313078 213.504 
L 414.72 214.374183 
L 414.72 213.504 
L 414.72 210.816 
L 414.72 208.128 
L 414.72 205.44 
L 414.72 202.752 
L 414.72 200.064 
L 414.72 197.376 
L 414.72 194.688 
L 414.72 192 
L 414.72 189.312 
L 414.72 186.624 
L 414.72 183.936 
L 414.72 181.248 
L 414.72 178.56 
L 414.72 175.872 
L 414.72 173.184 
L 414.72 170.496 
L 414.72 167.808 
L 414.72 165.12 
L 414.72 162.432 
L 414.72 159.744 
L 414.72 157.056 
L 414.72 154.368 
L 414.72 151.68 
L 414.72 148.992 
L 414.72 146.304 
L 414.72 143.616 
L 414.72 140.928 
L 414.72 138.24 
L 414.72 135.552 
L 414.72 132.864 
L 414.72 130.176 
L 414.72 127.488 
L 414.72 124.8 
L 414.72 122.112 
L 414.72 119.424 
L 414.72 118.165469 
L 414.347692 119.424 
L 413.560061 122.112 
L 412.621318 124.8 
L 411.908031 126.396253 
L 411.301785 127.488 
L 409.096063 130.065399 
L 408.975233 130.176 
L 406.284094 132.061314 
L 404.765261 132.864 
L 403.472126 133.459494 
L 400.660157 134.403985 
L 397.848189 134.74172 
L 395.03622 134.308305 
L 392.224252 132.989301 
L 392.036663 132.864 
L 389.412283 130.634936 
L 388.964448 130.176 
L 387.16113 127.488 
L 386.600315 126.244873 
L 385.960197 124.8 
L 385.144519 122.112 
L 384.562218 119.424 
L 384.078109 116.736 
L 383.788346 115.028227 
L 383.611541 114.048 
L 383.139888 111.36 
L 382.702327 108.672 
L 382.285748 105.984 
L 381.890661 103.296 
L 381.52216 100.608 
L 381.185049 97.92 
L 380.976378 96.07241 
L 380.813662 95.232 
L 380.304181 92.544 
L 379.775577 89.856 
L 379.205291 87.168 
L 378.546559 84.48 
L 378.164409 83.122361 
L 377.279401 81.792 
L 375.458575 79.104 
L 375.352441 78.940874 
L 374.505375 76.416 
L 373.862684 73.728 
L 373.428002 71.04 
L 373.161321 68.352 
L 373.033891 65.664 
L 373.025393 62.976 
L 373.122354 60.288 
L 373.317405 57.6 
L 373.609334 54.912 
L 374.00415 52.224 
L 374.517854 49.536 
L 375.182632 46.848 
L 375.352441 46.295066 
L 377.738048 44.16 
L 378.164409 43.850488 
L 378.390827 44.16 
L 379.884107 46.848 
L 380.933234 49.536 
L 380.976378 49.676087 
L 381.32105 52.224 
L 381.723854 54.912 
L 382.315061 57.6 
L 383.532032 60.288 
L 383.788346 60.611028 
L 383.910157 60.288 
L 385.555836 57.6 
L 386.600315 56.771145 
L 387.237266 54.912 
L 388.314577 52.224 
L 389.412283 49.925019 
L 389.561041 49.536 
L 390.631172 46.848 
L 391.84895 44.16 
L 392.224252 43.366362 
L 393.461986 41.472 
L 392.224252 41.472 
L 389.412283 41.472 
L 386.600315 41.472 
L 383.788346 41.472 
L 380.976378 41.472 
L 378.164409 41.472 
L 375.352441 41.472 
L 372.540472 41.472 
L 369.728504 41.472 
L 366.916535 41.472 
L 364.104567 41.472 
L 361.292598 41.472 
L 358.48063 41.472 
L 356.131046 41.472 
L 355.668661 43.24114 
L 355.031748 44.16 
L 353.201143 46.848 
L 352.856693 47.371848 
L 352.308962 46.848 
L 350.044724 45.237433 
L 349.588632 44.16 
L 348.353568 41.472 
L 347.232756 41.472 
L 344.420787 41.472 
L 341.608819 41.472 
L 338.79685 41.472 
L 335.984882 41.472 
L 333.172913 41.472 
L 330.360945 41.472 
L 327.548976 41.472 
L 324.737008 41.472 
L 321.925039 41.472 
L 319.113071 41.472 
L 316.301102 41.472 
L 313.489134 41.472 
L 310.677165 41.472 
L 307.865197 41.472 
L 305.053228 41.472 
L 302.24126 41.472 
L 299.429291 41.472 
L 296.617323 41.472 
L 293.805354 41.472 
L 290.993386 41.472 
L 288.181417 41.472 
L 285.369449 41.472 
L 282.55748 41.472 
L 279.745512 41.472 
L 276.933543 41.472 
L 274.121575 41.472 
L 271.309606 41.472 
L 268.497638 41.472 
L 265.685669 41.472 
L 262.873701 41.472 
L 260.061732 41.472 
L 257.249764 41.472 
L 254.437795 41.472 
L 251.625827 41.472 
L 248.813858 41.472 
L 246.00189 41.472 
L 243.189921 41.472 
L 240.377953 41.472 
L 237.565984 41.472 
L 234.754016 41.472 
L 231.942047 41.472 
L 229.130079 41.472 
L 226.31811 41.472 
L 223.506142 41.472 
L 220.694173 41.472 
L 217.882205 41.472 
L 215.070236 41.472 
L 212.258268 41.472 
L 209.446299 41.472 
L 206.634331 41.472 
L 203.822362 41.472 
L 201.010394 41.472 
L 198.198425 41.472 
L 195.386457 41.472 
L 192.574488 41.472 
L 189.76252 41.472 
L 186.950551 41.472 
L 184.138583 41.472 
L 181.326614 41.472 
L 178.514646 41.472 
L 175.702677 41.472 
L 172.890709 41.472 
L 170.07874 41.472 
L 167.266772 41.472 
L 164.454803 41.472 
L 161.642835 41.472 
L 158.830866 41.472 
L 156.018898 41.472 
L 153.206929 41.472 
L 150.394961 41.472 
L 147.582992 41.472 
L 144.771024 41.472 
L 141.959055 41.472 
L 139.147087 41.472 
L 136.335118 41.472 
L 133.52315 41.472 
L 130.711181 41.472 
L 127.899213 41.472 
L 125.087244 41.472 
L 122.275276 41.472 
L 119.463307 41.472 
L 116.651339 41.472 
L 113.83937 41.472 
L 111.027402 41.472 
L 108.215433 41.472 
L 105.403465 41.472 
L 102.591496 41.472 
L 99.779528 41.472 
L 96.967559 41.472 
L 94.155591 41.472 
L 91.343622 41.472 
L 88.531654 41.472 
L 85.719685 41.472 
L 82.907717 41.472 
L 80.095748 41.472 
L 77.28378 41.472 
L 74.471811 41.472 
L 71.659843 41.472 
L 68.847874 41.472 
L 66.035906 41.472 
L 63.223937 41.472 
L 60.411969 41.472 
L 57.6 41.472 
L 57.6 44.16 
L 57.6 44.430561 
L 59.310767 46.848 
L 60.411969 49.370317 
L 60.501282 49.536 
L 61.59877 52.224 
L 62.312578 54.912 
L 62.81137 57.6 
L 63.193626 60.288 
L 63.223937 60.527317 
L 63.851666 62.976 
L 64.607229 65.664 
L 65.545146 68.352 
L 66.035906 69.486496 
L 68.847874 70.996215 
L 68.959488 71.04 
L 71.659843 72.125988 
L 73.548533 73.728 
L 74.471811 74.700297 
L 75.467674 76.416 
L 76.638558 79.104 
L 77.28378 81.182381 
L 77.446509 81.792 
L 77.996923 84.48 
L 78.380678 87.168 
L 78.613156 89.856 
L 78.698219 92.544 
L 78.621202 95.232 
L 78.335345 97.92 
L 77.728215 100.608 
L 77.28378 101.746567 
L 76.72354 103.296 
L 75.11012 105.984 
L 74.471811 106.670501 
L 71.659843 108.045023 
L 68.847874 107.316807 
L 67.188894 105.984 
L 66.035906 105.029242 
L 64.076924 103.296 
L 63.223937 102.510484 
L 60.867364 103.296 
L 60.411969 103.417771 
L 59.223873 105.984 
L 57.839137 108.672 
L 57.6 109.145478 
L 57.6 111.36 
L 57.6 114.048 
L 57.6 116.736 
L 57.6 119.424 
L 57.6 122.112 
L 57.6 124.8 
L 57.6 127.488 
L 57.6 130.176 
L 57.6 132.864 
L 57.6 135.552 
L 57.6 138.24 
L 57.6 140.928 
L 57.6 141.665341 
L 58.296878 140.928 
L 60.411969 139.668714 
L 63.223937 140.359733 
L 63.997362 140.928 
L 66.035906 142.411036 
L 67.163729 143.616 
L 68.847874 145.463741 
L 69.497897 146.304 
L 71.45758 148.992 
L 71.659843 149.291986 
L 73.335751 151.68 
L 74.471811 153.459592 
L 75.328175 154.368 
L 77.28378 156.87652 
L 77.813633 157.056 
L 80.095748 158.200772 
L 81.237213 157.056 
L 82.907717 155.134511 
L 83.219449 154.368 
L 84.268928 151.68 
L 85.123971 148.992 
L 85.719685 146.64275 
L 85.818208 146.304 
L 86.486741 143.616 
L 86.980524 140.928 
L 87.307382 138.24 
L 87.476478 135.552 
L 87.499649 132.864 
L 87.393496 130.176 
L 87.1816 127.488 
L 86.895733 124.8 
L 86.575231 122.112 
L 86.264918 119.424 
L 86.013362 116.736 
L 85.874332 114.048 
L 85.915909 111.36 
L 86.247664 108.672 
L 87.102522 105.984 
L 88.531654 103.933618 
L 91.343622 104.983712 
L 91.864441 105.984 
L 93.045263 108.672 
L 94.008584 111.36 
L 94.155591 111.929725 
L 94.420954 114.048 
L 94.616027 116.736 
L 94.699418 119.424 
L 94.704998 122.112 
L 94.668031 124.8 
L 94.622966 127.488 
L 94.601014 130.176 
L 94.627702 132.864 
L 94.720574 135.552 
L 94.887197 138.24 
L 95.123885 140.928 
L 95.415726 143.616 
L 95.738351 146.304 
L 96.061233 148.992 
L 96.351552 151.68 
L 96.577412 154.368 
L 96.709474 157.056 
L 96.720627 159.744 
L 96.58378 162.432 
L 96.267919 165.12 
L 95.732362 167.808 
L 94.918617 170.496 
L 94.155591 172.299737 
L 93.284341 173.184 
L 91.343622 174.718425 
L 88.531654 175.034764 
L 85.719685 174.634531 
L 82.907717 174.579119 
L 80.300137 175.872 
L 80.095748 175.963775 
L 77.28378 177.792537 
L 75.072376 178.56 
L 74.471811 178.707129 
L 73.43711 178.56 
L 71.659843 178.331059 
L 68.847874 176.851783 
L 67.769655 175.872 
L 66.035906 174.393653 
L 65.061505 173.184 
L 63.223937 170.999646 
L 62.894982 170.496 
L 61.19048 167.808 
L 60.411969 166.542589 
L 59.676298 165.12 
L 58.45784 162.432 
L 57.6 160.204411 
L 57.6 162.432 
L 57.6 165.12 
L 57.6 167.808 
L 57.6 170.496 
L 57.6 173.184 
L 57.6 175.872 
L 57.6 178.56 
L 57.6 181.248 
L 57.6 183.936 
L 57.6 186.624 
L 57.6 189.312 
L 57.6 192 
L 57.6 194.688 
L 57.6 197.376 
L 57.6 200.064 
L 57.6 202.752 
L 57.6 205.44 
L 57.6 208.128 
L 57.6 210.816 
L 57.6 213.504 
L 57.6 216.192 
L 57.6 218.88 
L 57.6 221.568 
L 57.6 224.256 
L 57.6 226.944 
L 57.6 229.632 
L 57.6 232.32 
L 57.6 235.008 
L 57.6 237.696 
L 57.6 240.384 
L 57.6 243.072 
L 57.6 245.76 
L 57.6 248.448 
L 57.6 251.136 
L 57.6 253.824 
L 57.6 256.512 
L 57.6 259.2 
L 57.6 261.888 
L 57.6 264.576 
L 57.6 266.91593 
L 58.128055 267.264 
L 60.411969 269.863891 
L 60.538631 269.952 
L 62.076643 272.64 
L 62.231733 275.328 
L 61.912215 278.016 
L 61.326258 280.704 
L 60.530138 283.392 
L 60.411969 283.69269 
L 59.690195 286.08 
L 58.611005 288.768 
L 57.6 290.688531 
L 57.6 291.456 
L 57.6 294.144 
L 57.6 296.832 
L 57.6 299.52 
L 57.6 302.208 
L 57.6 304.896 
L 57.6 307.584 
z
M 74.082312 278.016 
L 71.659843 276.181905 
L 70.546216 275.328 
L 68.847874 273.407965 
L 67.973864 272.64 
L 66.659226 269.952 
L 66.374571 267.264 
L 66.497932 264.576 
L 66.803191 261.888 
L 67.191329 259.2 
L 67.614336 256.512 
L 68.04791 253.824 
L 68.48004 251.136 
L 68.847874 248.835537 
L 68.911134 248.448 
L 69.368713 245.76 
L 69.816593 243.072 
L 70.25477 240.384 
L 70.685855 237.696 
L 71.114662 235.008 
L 71.548046 232.32 
L 71.659843 231.649314 
L 72.041173 229.632 
L 72.560891 226.944 
L 73.099755 224.256 
L 73.6681 221.568 
L 74.275492 218.88 
L 74.471811 218.064667 
L 75.043816 216.192 
L 75.911322 213.504 
L 76.830714 210.816 
L 77.28378 209.540992 
L 78.127938 208.128 
L 79.784148 205.44 
L 80.095748 204.934843 
L 82.907717 203.928057 
L 84.419164 205.44 
L 85.719685 206.909091 
L 86.147856 208.128 
L 86.962331 210.816 
L 87.637169 213.504 
L 88.212864 216.192 
L 88.531654 217.855594 
L 88.665911 218.88 
L 88.999806 221.568 
L 89.322572 224.256 
L 89.643265 226.944 
L 89.966057 229.632 
L 90.2903 232.32 
L 90.610676 235.008 
L 90.917644 237.696 
L 91.198281 240.384 
L 91.343622 242.042892 
L 91.433089 243.072 
L 91.60343 245.76 
L 91.702501 248.448 
L 91.720618 251.136 
L 91.649928 253.824 
L 91.483711 256.512 
L 91.343622 257.951722 
L 91.204116 259.2 
L 90.795981 261.888 
L 90.269312 264.576 
L 89.620741 267.264 
L 88.843438 269.952 
L 88.531654 270.920372 
L 87.839818 272.64 
L 86.598874 275.328 
L 85.719685 276.949193 
L 84.779026 278.016 
L 82.907717 279.719499 
L 80.095748 280.34503 
L 77.28378 279.700057 
L 74.471811 278.267987 
z
M 284.734374 278.016 
L 282.55748 275.968196 
L 282.092265 275.328 
L 280.171462 272.64 
L 279.745512 272.029836 
L 278.639036 269.952 
L 277.365444 267.264 
L 276.933543 266.233813 
L 276.357361 264.576 
L 275.589188 261.888 
L 274.972554 259.2 
L 274.481493 256.512 
L 274.121575 254.00603 
L 274.098211 253.824 
L 273.836124 251.136 
L 273.651519 248.448 
L 273.53525 245.76 
L 273.482685 243.072 
L 273.493121 240.384 
L 273.569364 237.696 
L 273.717428 235.008 
L 273.946242 232.32 
L 274.121575 230.818414 
L 274.312807 229.632 
L 274.89201 226.944 
L 275.668579 224.256 
L 276.67982 221.568 
L 276.933543 220.996051 
L 279.491854 218.88 
L 279.745512 218.701385 
L 280.090616 218.88 
L 282.55748 220.088597 
L 283.449335 221.568 
L 285.069785 224.256 
L 285.369449 224.754962 
L 286.142311 226.944 
L 287.05706 229.632 
L 287.941903 232.32 
L 288.181417 233.07231 
L 288.642645 235.008 
L 289.254202 237.696 
L 289.839387 240.384 
L 290.399951 243.072 
L 290.936537 245.76 
L 290.993386 246.06841 
L 291.389065 248.448 
L 291.80241 251.136 
L 292.176694 253.824 
L 292.503288 256.512 
L 292.771468 259.2 
L 292.967636 261.888 
L 293.074064 264.576 
L 293.066936 267.264 
L 292.913177 269.952 
L 292.565042 272.64 
L 291.950259 275.328 
L 290.993386 277.920371 
L 290.898442 278.016 
L 288.181417 279.758863 
L 285.369449 278.656361 
z
M 109.695247 253.824 
L 108.215433 252.659243 
L 107.335576 251.136 
L 105.912538 248.448 
L 105.403465 247.390275 
L 104.885635 245.76 
L 104.17494 243.072 
L 103.599565 240.384 
L 103.149928 237.696 
L 102.822076 235.008 
L 102.6166 232.32 
L 102.591496 231.444381 
L 102.555174 229.632 
L 102.591496 227.090838 
L 102.594703 226.944 
L 102.799305 224.256 
L 103.170436 221.568 
L 103.736165 218.88 
L 104.541478 216.192 
L 105.403465 214.078534 
L 107.127774 213.504 
L 108.215433 213.22356 
L 108.507888 213.504 
L 111.027402 215.949212 
L 111.165819 216.192 
L 112.587665 218.88 
L 113.83937 221.401877 
L 113.906094 221.568 
L 114.860464 224.256 
L 115.681579 226.944 
L 116.365014 229.632 
L 116.651339 231.068086 
L 116.872222 232.32 
L 117.190814 235.008 
L 117.35373 237.696 
L 117.364748 240.384 
L 117.225221 243.072 
L 116.932827 245.76 
L 116.651339 247.446607 
L 116.403016 248.448 
L 115.434497 251.136 
L 114.032896 253.824 
L 113.83937 254.114327 
L 111.027402 254.870491 
z
M 358.680031 243.072 
L 358.48063 243.006724 
L 356.802832 240.384 
L 355.668661 238.334832 
L 355.46494 237.696 
L 354.760451 235.008 
L 354.21382 232.32 
L 353.826006 229.632 
L 353.602177 226.944 
L 353.552749 224.256 
L 353.695195 221.568 
L 354.056649 218.88 
L 354.677683 216.192 
L 355.61797 213.504 
L 355.668661 213.392601 
L 358.48063 211.234684 
L 361.292598 212.344185 
L 362.298739 213.504 
L 364.104567 215.855615 
L 364.279876 216.192 
L 365.384741 218.88 
L 366.169305 221.568 
L 366.661219 224.256 
L 366.885774 226.944 
L 366.863441 229.632 
L 366.608284 232.32 
L 366.126826 235.008 
L 365.416985 237.696 
L 364.466548 240.384 
L 364.104567 241.216497 
L 362.27371 243.072 
L 361.292598 243.888318 
z
M 188.803276 232.32 
L 188.100487 229.632 
L 187.945567 226.944 
L 188.224797 224.256 
L 188.827598 221.568 
L 189.665924 218.88 
L 189.76252 218.639742 
L 192.158778 218.88 
L 192.574488 218.980339 
L 192.940488 221.568 
L 193.007584 224.256 
L 192.86833 226.944 
L 192.580573 229.632 
L 192.574488 229.670396 
L 191.116016 232.32 
L 189.76252 234.309235 
z
M 158.458364 216.192 
L 156.425068 213.504 
L 156.018898 212.881568 
L 155.293653 210.816 
L 154.554865 208.128 
L 154.018249 205.44 
L 153.692992 202.752 
L 153.602366 200.064 
L 153.793292 197.376 
L 154.352871 194.688 
L 155.440062 192 
L 156.018898 191.079162 
L 158.830866 190.122845 
L 161.642835 191.637038 
L 161.932012 192 
L 163.662968 194.688 
L 164.454803 196.319239 
L 164.770242 197.376 
L 165.301618 200.064 
L 165.587326 202.752 
L 165.661173 205.44 
L 165.538872 208.128 
L 165.215368 210.816 
L 164.652567 213.504 
L 164.454803 214.156837 
L 162.972358 216.192 
L 161.642835 217.337377 
L 158.830866 216.635832 
z
M 302.568548 205.44 
L 302.24126 205.191993 
L 301.533051 202.752 
L 300.740386 200.064 
L 299.857432 197.376 
L 299.429291 196.204516 
L 299.145914 194.688 
L 298.629598 192 
L 298.04295 189.312 
L 297.327112 186.624 
L 296.617323 184.511826 
L 296.500559 183.936 
L 295.933895 181.248 
L 295.295687 178.56 
L 294.567746 175.872 
L 293.805354 173.405785 
L 293.759891 173.184 
L 293.272239 170.496 
L 292.837385 167.808 
L 292.497507 165.12 
L 292.318208 162.432 
L 292.408437 159.744 
L 292.964901 157.056 
L 293.805354 155.309809 
L 296.617323 156.63308 
L 296.850566 157.056 
L 298.263078 159.744 
L 299.429291 161.788221 
L 299.646969 162.432 
L 300.457384 165.12 
L 301.24314 167.808 
L 302.044888 170.496 
L 302.24126 171.178751 
L 302.622216 173.184 
L 303.100061 175.872 
L 303.576435 178.56 
L 304.077221 181.248 
L 304.634656 183.936 
L 305.053228 185.758665 
L 305.183653 186.624 
L 305.550471 189.312 
L 305.883721 192 
L 306.162212 194.688 
L 306.354968 197.376 
L 306.417736 200.064 
L 306.284756 202.752 
L 305.849234 205.44 
L 305.053228 207.788332 
z
M 389.642396 194.688 
L 389.412283 194.408152 
L 388.550046 192 
L 387.996784 189.312 
L 387.725084 186.624 
L 387.651615 183.936 
L 387.726493 181.248 
L 387.919478 178.56 
L 388.213148 175.872 
L 388.599473 173.184 
L 389.078358 170.496 
L 389.412283 168.955733 
L 389.752629 167.808 
L 390.69722 165.12 
L 391.805583 162.432 
L 392.224252 161.565583 
L 393.772247 159.744 
L 395.03622 158.453654 
L 397.848189 157.750074 
L 400.660157 159.048575 
L 401.3225 159.744 
L 403.220066 162.432 
L 403.472126 162.944126 
L 404.261428 165.12 
L 404.851072 167.808 
L 405.167327 170.496 
L 405.293438 173.184 
L 405.283554 175.872 
L 405.170357 178.56 
L 404.966209 181.248 
L 404.657724 183.936 
L 404.187661 186.624 
L 403.472126 189.111981 
L 403.394897 189.312 
L 401.919531 192 
L 400.660157 193.377787 
L 399.050769 194.688 
L 397.848189 195.456839 
L 395.03622 196.663279 
L 392.224252 196.750921 
z
M 366.372836 175.872 
L 364.286144 173.184 
L 364.104567 172.919432 
L 362.857868 170.496 
L 361.67461 167.808 
L 361.292598 166.776086 
L 360.614465 165.12 
L 359.726925 162.432 
L 359.057329 159.744 
L 358.604974 157.056 
L 358.48063 155.654091 
L 358.279571 154.368 
L 358.228054 151.68 
L 358.48063 149.519135 
L 358.514392 148.992 
L 358.875189 146.304 
L 359.404076 143.616 
L 360.076978 140.928 
L 360.86468 138.24 
L 361.292598 136.928325 
L 361.732168 135.552 
L 362.686936 132.864 
L 363.727793 130.176 
L 364.104567 129.255044 
L 365.350736 127.488 
L 366.916535 125.572025 
L 369.728504 125.127729 
L 372.540472 126.540066 
L 373.6333 127.488 
L 375.352441 129.100675 
L 376.257607 130.176 
L 377.976422 132.864 
L 378.164409 133.263857 
L 379.047868 135.552 
L 379.613152 138.24 
L 379.863938 140.928 
L 379.901149 143.616 
L 379.786147 146.304 
L 379.559405 148.992 
L 379.248615 151.68 
L 378.872853 154.368 
L 378.445046 157.056 
L 378.164409 158.629548 
L 377.928065 159.744 
L 377.299201 162.432 
L 376.630009 165.12 
L 375.920087 167.808 
L 375.352441 169.826901 
L 375.063395 170.496 
L 373.815725 173.184 
L 372.540472 175.706874 
L 372.312656 175.872 
L 369.728504 177.581188 
L 366.916535 176.502283 
z
M 118.079666 170.496 
L 116.651339 169.68336 
L 115.139142 167.808 
L 113.83937 166.03791 
L 113.398573 165.12 
L 112.344416 162.432 
L 111.541082 159.744 
L 111.027402 157.424521 
L 110.963633 157.056 
L 110.641379 154.368 
L 110.457021 151.68 
L 110.38264 148.992 
L 110.399451 146.304 
L 110.495833 143.616 
L 110.666238 140.928 
L 110.910798 138.24 
L 111.027402 137.258481 
L 111.378157 135.552 
L 112.142835 132.864 
L 113.23453 130.176 
L 113.83937 129.058074 
L 116.651339 129.378475 
L 117.198142 130.176 
L 119.145748 132.864 
L 119.463307 133.28864 
L 120.407555 135.552 
L 121.508104 138.24 
L 122.275276 140.177137 
L 122.508877 140.928 
L 123.260748 143.616 
L 123.943554 146.304 
L 124.548573 148.992 
L 125.063606 151.68 
L 125.087244 151.849365 
L 125.414232 154.368 
L 125.627985 157.056 
L 125.687605 159.744 
L 125.564699 162.432 
L 125.218887 165.12 
L 125.087244 165.73517 
L 124.338969 167.808 
L 122.62383 170.496 
L 122.275276 170.874711 
L 119.463307 171.306216 
z
M 172.608577 159.744 
L 170.227936 157.056 
L 170.07874 156.90908 
L 168.932053 154.368 
L 167.721628 151.68 
L 167.266772 150.61908 
L 166.811343 148.992 
L 166.161586 146.304 
L 165.604409 143.616 
L 165.132901 140.928 
L 164.740218 138.24 
L 164.454803 135.822596 
L 164.430515 135.552 
L 164.25983 132.864 
L 164.153307 130.176 
L 164.112697 127.488 
L 164.143291 124.8 
L 164.253488 122.112 
L 164.454067 119.424 
L 164.454803 119.417251 
L 165.049638 116.736 
L 165.951671 114.048 
L 167.214149 111.36 
L 167.266772 111.268016 
L 167.437355 111.36 
L 170.07874 112.833175 
L 170.517275 114.048 
L 171.39941 116.736 
L 172.238372 119.424 
L 172.890709 121.500054 
L 172.995269 122.112 
L 173.435942 124.8 
L 173.862308 127.488 
L 174.284328 130.176 
L 174.707078 132.864 
L 175.131913 135.552 
L 175.557112 138.24 
L 175.702677 139.227572 
L 175.866116 140.928 
L 176.092038 143.616 
L 176.278043 146.304 
L 176.40437 148.992 
L 176.441327 151.68 
L 176.343676 154.368 
L 176.041111 157.056 
L 175.702677 158.643421 
L 173.997643 159.744 
L 172.890709 160.112139 
z
M 130.419969 103.296 
L 129.001051 100.608 
L 127.899213 98.499928 
L 127.719642 97.92 
L 127.012496 95.232 
L 126.410616 92.544 
L 125.931143 89.856 
L 125.587789 87.168 
L 125.391061 84.48 
L 125.350136 81.792 
L 125.476423 79.104 
L 125.788914 76.416 
L 126.321902 73.728 
L 127.136956 71.04 
L 127.899213 69.270544 
L 129.623705 68.352 
L 130.711181 67.941402 
L 131.248303 68.352 
L 133.52315 70.070661 
L 134.08334 71.04 
L 135.556975 73.728 
L 136.335118 75.228728 
L 136.745512 76.416 
L 137.574996 79.104 
L 138.312107 81.792 
L 138.922537 84.48 
L 139.147087 85.88799 
L 139.307771 87.168 
L 139.46881 89.856 
L 139.432453 92.544 
L 139.181346 95.232 
L 139.147087 95.429835 
L 138.549416 97.92 
L 137.619152 100.608 
L 136.439576 103.296 
L 136.335118 103.496046 
L 133.52315 105.59848 
L 130.711181 103.824285 
z
M 182.644556 95.232 
L 181.326614 94.576005 
L 179.856422 92.544 
L 178.514646 90.389294 
L 178.272165 89.856 
L 177.260851 87.168 
L 176.461702 84.48 
L 175.814576 81.792 
L 175.702677 81.213514 
L 175.359242 79.104 
L 175.063575 76.416 
L 174.909532 73.728 
L 174.901552 71.04 
L 175.047891 68.352 
L 175.355719 65.664 
L 175.702677 63.69025 
L 175.88175 62.976 
L 176.814668 60.288 
L 178.00947 57.6 
L 178.514646 56.644659 
L 181.326614 54.932622 
L 184.138583 56.620344 
L 184.793454 57.6 
L 186.375794 60.288 
L 186.950551 61.439609 
L 187.50344 62.976 
L 188.24321 65.664 
L 188.763808 68.352 
L 189.093321 71.04 
L 189.259334 73.728 
L 189.285943 76.416 
L 189.192125 79.104 
L 188.990873 81.792 
L 188.688522 84.48 
L 188.283729 87.168 
L 187.765398 89.856 
L 187.10832 92.544 
L 186.950551 93.078552 
L 185.047338 95.232 
L 184.138583 95.973486 
z
M 276.482212 68.352 
L 274.121575 67.170247 
L 273.768589 65.664 
L 273.491421 62.976 
L 273.674579 60.288 
L 274.121575 58.766299 
L 276.933543 60.148645 
L 276.981821 60.288 
L 277.480048 62.976 
L 277.508015 65.664 
L 277.001098 68.352 
L 276.933543 68.523372 
z
" style="fill:#481b6d;"/>
    <path clip-path="url(#pdbe952059b)" d="M 414.72 41.472553 
L 414.72 41.472 
L 414.719351 41.472 
z
" style="fill:#481b6d;"/>
   </g>
   <g id="PathCollection_2">
    <path clip-path="url(#pdbe952059b)" d="M 150.394961 306.143702 
L 152.1396 307.584 
L 153.206929 307.584 
L 156.018898 307.584 
L 158.557637 307.584 
L 158.830866 307.405011 
L 160.385971 304.896 
L 161.642835 302.58493 
L 161.77803 302.208 
L 162.607501 299.52 
L 163.280431 296.832 
L 163.783038 294.144 
L 164.103429 291.456 
L 164.233435 288.768 
L 164.169604 286.08 
L 163.913244 283.392 
L 163.469293 280.704 
L 162.843739 278.016 
L 162.039073 275.328 
L 161.642835 274.232467 
L 161.009677 272.64 
L 159.82662 269.952 
L 158.830866 267.892708 
L 158.505004 267.264 
L 157.043582 264.576 
L 156.018898 262.775146 
L 155.473723 261.888 
L 153.774128 259.2 
L 153.206929 258.33342 
L 151.850287 256.512 
L 150.394961 254.549703 
L 149.704722 253.824 
L 147.582992 251.456482 
L 147.110835 251.136 
L 144.771024 249.295199 
L 141.959055 248.970282 
L 140.131257 251.136 
L 139.147087 252.628327 
L 138.756138 253.824 
L 137.956679 256.512 
L 137.262525 259.2 
L 136.666748 261.888 
L 136.335118 263.663807 
L 136.200378 264.576 
L 135.877826 267.264 
L 135.646943 269.952 
L 135.520656 272.64 
L 135.513168 275.328 
L 135.640038 278.016 
L 135.918521 280.704 
L 136.335118 283.199479 
L 136.373826 283.392 
L 137.114225 286.08 
L 138.075348 288.768 
L 139.147087 291.194841 
L 139.288469 291.456 
L 140.92179 294.144 
L 141.959055 295.717367 
L 142.804945 296.832 
L 144.771024 299.420566 
L 144.854075 299.52 
L 147.042534 302.208 
L 147.582992 302.903781 
L 149.339784 304.896 
z
" style="fill:#3f4788;"/>
    <path clip-path="url(#pdbe952059b)" d="M 347.232756 307.584 
L 350.044724 307.584 
L 352.856693 307.584 
L 355.668661 307.584 
L 356.917921 307.584 
L 357.770672 304.896 
L 358.48063 302.763443 
L 358.617656 302.208 
L 359.306377 299.52 
L 360.011927 296.832 
L 360.68887 294.144 
L 361.282088 291.456 
L 361.292598 291.38623 
L 361.729802 288.768 
L 361.945559 286.08 
L 361.81607 283.392 
L 361.292598 281.131761 
L 361.181822 280.704 
L 359.833884 278.016 
L 358.48063 276.423601 
L 357.465965 275.328 
L 355.668661 273.846365 
L 354.138611 272.64 
L 352.856693 271.734981 
L 350.267046 269.952 
L 350.044724 269.79785 
L 347.232756 268.149069 
L 344.555693 267.264 
L 344.420787 267.2063 
L 344.310996 267.264 
L 342.044031 269.952 
L 341.608819 271.901758 
L 341.54234 272.64 
L 341.490375 275.328 
L 341.583818 278.016 
L 341.608819 278.333034 
L 341.833953 280.704 
L 342.165992 283.392 
L 342.546665 286.08 
L 342.962126 288.768 
L 343.403522 291.456 
L 343.865142 294.144 
L 344.343739 296.832 
L 344.420787 297.245755 
L 344.994298 299.52 
L 345.689948 302.208 
L 346.404819 304.896 
L 347.141655 307.584 
z
" style="fill:#3f4788;"/>
    <path clip-path="url(#pdbe952059b)" d="M 397.848189 307.584 
L 400.660157 307.584 
L 403.472126 307.584 
L 406.284094 307.584 
L 409.096063 307.584 
L 410.229054 307.584 
L 409.096063 307.112243 
L 406.284094 306.43504 
L 403.472126 306.177901 
L 400.660157 306.25705 
L 397.848189 306.820514 
L 396.355223 307.584 
z
" style="fill:#3f4788;"/>
    <path clip-path="url(#pdbe952059b)" d="M 406.284094 295.519832 
L 409.096063 296.221227 
L 411.908031 295.973543 
L 414.72 294.390103 
L 414.72 294.144 
L 414.72 291.456 
L 414.72 288.768 
L 414.72 286.08 
L 414.72 283.392 
L 414.72 280.704 
L 414.72 278.016 
L 414.72 275.328 
L 414.72 272.64 
L 414.72 269.952 
L 414.72 267.264 
L 414.72 264.732451 
L 414.48615 264.576 
L 411.908031 262.949848 
L 409.543349 261.888 
L 409.096063 261.595678 
L 406.284094 260.527729 
L 403.472126 261.145281 
L 403.245527 261.888 
L 401.8413 264.576 
L 400.761841 267.264 
L 400.660157 267.499943 
L 399.996717 269.952 
L 399.380326 272.64 
L 398.856911 275.328 
L 398.438071 278.016 
L 398.161322 280.704 
L 398.087158 283.392 
L 398.313883 286.08 
L 399.016918 288.768 
L 400.548587 291.456 
L 400.660157 291.576484 
L 403.472126 294.092428 
L 403.561538 294.144 
z
" style="fill:#3f4788;"/>
    <path clip-path="url(#pdbe952059b)" d="M 58.611005 288.768 
L 59.690195 286.08 
L 60.411969 283.69269 
L 60.530138 283.392 
L 61.326258 280.704 
L 61.912215 278.016 
L 62.231733 275.328 
L 62.076643 272.64 
L 60.538631 269.952 
L 60.411969 269.863891 
L 58.128055 267.264 
L 57.6 266.91593 
L 57.6 267.264 
L 57.6 269.952 
L 57.6 272.64 
L 57.6 275.328 
L 57.6 278.016 
L 57.6 280.704 
L 57.6 283.392 
L 57.6 286.08 
L 57.6 288.768 
L 57.6 290.688531 
z
" style="fill:#3f4788;"/>
    <path clip-path="url(#pdbe952059b)" d="M 74.471811 278.267987 
L 77.28378 279.700057 
L 80.095748 280.34503 
L 82.907717 279.719499 
L 84.779026 278.016 
L 85.719685 276.949193 
L 86.598874 275.328 
L 87.839818 272.64 
L 88.531654 270.920372 
L 88.843438 269.952 
L 89.620741 267.264 
L 90.269312 264.576 
L 90.795981 261.888 
L 91.204116 259.2 
L 91.343622 257.951722 
L 91.483711 256.512 
L 91.649928 253.824 
L 91.720618 251.136 
L 91.702501 248.448 
L 91.60343 245.76 
L 91.433089 243.072 
L 91.343622 242.042892 
L 91.198281 240.384 
L 90.917644 237.696 
L 90.610676 235.008 
L 90.2903 232.32 
L 89.966057 229.632 
L 89.643265 226.944 
L 89.322572 224.256 
L 88.999806 221.568 
L 88.665911 218.88 
L 88.531654 217.855594 
L 88.212864 216.192 
L 87.637169 213.504 
L 86.962331 210.816 
L 86.147856 208.128 
L 85.719685 206.909091 
L 84.419164 205.44 
L 82.907717 203.928057 
L 80.095748 204.934843 
L 79.784148 205.44 
L 78.127938 208.128 
L 77.28378 209.540992 
L 76.830714 210.816 
L 75.911322 213.504 
L 75.043816 216.192 
L 74.471811 218.064667 
L 74.275492 218.88 
L 73.6681 221.568 
L 73.099755 224.256 
L 72.560891 226.944 
L 72.041173 229.632 
L 71.659843 231.649314 
L 71.548046 232.32 
L 71.114662 235.008 
L 70.685855 237.696 
L 70.25477 240.384 
L 69.816593 243.072 
L 69.368713 245.76 
L 68.911134 248.448 
L 68.847874 248.835537 
L 68.48004 251.136 
L 68.04791 253.824 
L 67.614336 256.512 
L 67.191329 259.2 
L 66.803191 261.888 
L 66.497932 264.576 
L 66.374571 267.264 
L 66.659226 269.952 
L 67.973864 272.64 
L 68.847874 273.407965 
L 70.546216 275.328 
L 71.659843 276.181905 
L 74.082312 278.016 
z
" style="fill:#3f4788;"/>
    <path clip-path="url(#pdbe952059b)" d="M 285.369449 278.656361 
L 288.181417 279.758863 
L 290.898442 278.016 
L 290.993386 277.920371 
L 291.950259 275.328 
L 292.565042 272.64 
L 292.913177 269.952 
L 293.066936 267.264 
L 293.074064 264.576 
L 292.967636 261.888 
L 292.771468 259.2 
L 292.503288 256.512 
L 292.176694 253.824 
L 291.80241 251.136 
L 291.389065 248.448 
L 290.993386 246.06841 
L 290.936537 245.76 
L 290.399951 243.072 
L 289.839387 240.384 
L 289.254202 237.696 
L 288.642645 235.008 
L 288.181417 233.07231 
L 287.941903 232.32 
L 287.05706 229.632 
L 286.142311 226.944 
L 285.369449 224.754962 
L 285.069785 224.256 
L 283.449335 221.568 
L 282.55748 220.088597 
L 280.090616 218.88 
L 279.745512 218.701385 
L 279.491854 218.88 
L 276.933543 220.996051 
L 276.67982 221.568 
L 275.668579 224.256 
L 274.89201 226.944 
L 274.312807 229.632 
L 274.121575 230.818414 
L 273.946242 232.32 
L 273.717428 235.008 
L 273.569364 237.696 
L 273.493121 240.384 
L 273.482685 243.072 
L 273.53525 245.76 
L 273.651519 248.448 
L 273.836124 251.136 
L 274.098211 253.824 
L 274.121575 254.00603 
L 274.481493 256.512 
L 274.972554 259.2 
L 275.589188 261.888 
L 276.357361 264.576 
L 276.933543 266.233813 
L 277.365444 267.264 
L 278.639036 269.952 
L 279.745512 272.029836 
L 280.171462 272.64 
L 282.092265 275.328 
L 282.55748 275.968196 
L 284.734374 278.016 
z
" style="fill:#3f4788;"/>
    <path clip-path="url(#pdbe952059b)" d="M 386.600315 262.708083 
L 388.987794 261.888 
L 389.412283 261.781123 
L 392.224252 260.267024 
L 395.03622 259.270305 
L 395.45944 259.2 
L 397.848189 258.731174 
L 400.660157 258.596815 
L 403.472126 258.158528 
L 404.517845 256.512 
L 406.284094 254.621839 
L 406.688202 253.824 
L 408.680016 251.136 
L 409.096063 250.636124 
L 410.446711 248.448 
L 411.908031 245.970916 
L 412.004043 245.76 
L 413.100858 243.072 
L 413.995375 240.384 
L 414.70431 237.696 
L 414.72 237.614762 
L 414.72 235.008 
L 414.72 232.32 
L 414.72 229.632 
L 414.72 226.944 
L 414.72 224.256 
L 414.72 221.568 
L 414.72 218.88 
L 414.72 216.192 
L 414.72 214.374183 
L 414.313078 213.504 
L 412.371843 210.816 
L 411.908031 210.320984 
L 411.461395 210.816 
L 409.096063 212.684245 
L 408.681363 213.504 
L 406.547203 216.192 
L 406.284094 216.415076 
L 404.318708 218.88 
L 403.472126 219.680561 
L 401.843045 221.568 
L 400.660157 222.766277 
L 399.329695 224.256 
L 397.848189 225.871166 
L 396.874914 226.944 
L 395.03622 229.058873 
L 394.508065 229.632 
L 392.256441 232.32 
L 392.224252 232.362768 
L 390.183475 235.008 
L 389.412283 236.177334 
L 388.464938 237.696 
L 387.093991 240.384 
L 386.600315 241.557263 
L 386.048569 243.072 
L 385.270721 245.76 
L 384.661174 248.448 
L 384.206513 251.136 
L 383.923171 253.824 
L 383.877741 256.512 
L 384.257169 259.2 
L 385.645477 261.888 
z
" style="fill:#3f4788;"/>
    <path clip-path="url(#pdbe952059b)" d="M 111.027402 254.870491 
L 113.83937 254.114327 
L 114.032896 253.824 
L 115.434497 251.136 
L 116.403016 248.448 
L 116.651339 247.446607 
L 116.932827 245.76 
L 117.225221 243.072 
L 117.364748 240.384 
L 117.35373 237.696 
L 117.190814 235.008 
L 116.872222 232.32 
L 116.651339 231.068086 
L 116.365014 229.632 
L 115.681579 226.944 
L 114.860464 224.256 
L 113.906094 221.568 
L 113.83937 221.401877 
L 112.587665 218.88 
L 111.165819 216.192 
L 111.027402 215.949212 
L 108.507888 213.504 
L 108.215433 213.22356 
L 107.127774 213.504 
L 105.403465 214.078534 
L 104.541478 216.192 
L 103.736165 218.88 
L 103.170436 221.568 
L 102.799305 224.256 
L 102.594703 226.944 
L 102.591496 227.090838 
L 102.555174 229.632 
L 102.591496 231.444381 
L 102.6166 232.32 
L 102.822076 235.008 
L 103.149928 237.696 
L 103.599565 240.384 
L 104.17494 243.072 
L 104.885635 245.76 
L 105.403465 247.390275 
L 105.912538 248.448 
L 107.335576 251.136 
L 108.215433 252.659243 
L 109.695247 253.824 
z
" style="fill:#3f4788;"/>
    <path clip-path="url(#pdbe952059b)" d="M 361.292598 243.888318 
L 362.27371 243.072 
L 364.104567 241.216497 
L 364.466548 240.384 
L 365.416985 237.696 
L 366.126826 235.008 
L 366.608284 232.32 
L 366.863441 229.632 
L 366.885774 226.944 
L 366.661219 224.256 
L 366.169305 221.568 
L 365.384741 218.88 
L 364.279876 216.192 
L 364.104567 215.855615 
L 362.298739 213.504 
L 361.292598 212.344185 
L 358.48063 211.234684 
L 355.668661 213.392601 
L 355.61797 213.504 
L 354.677683 216.192 
L 354.056649 218.88 
L 353.695195 221.568 
L 353.552749 224.256 
L 353.602177 226.944 
L 353.826006 229.632 
L 354.21382 232.32 
L 354.760451 235.008 
L 355.46494 237.696 
L 355.668661 238.334832 
L 356.802832 240.384 
L 358.48063 243.006724 
L 358.680031 243.072 
z
" style="fill:#3f4788;"/>
    <path clip-path="url(#pdbe952059b)" d="M 189.76252 234.309235 
L 191.116016 232.32 
L 192.574488 229.670396 
L 192.580573 229.632 
L 192.86833 226.944 
L 193.007584 224.256 
L 192.940488 221.568 
L 192.574488 218.980339 
L 192.158778 218.88 
L 189.76252 218.639742 
L 189.665924 218.88 
L 188.827598 221.568 
L 188.224797 224.256 
L 187.945567 226.944 
L 188.100487 229.632 
L 188.803276 232.32 
z
" style="fill:#3f4788;"/>
    <path clip-path="url(#pdbe952059b)" d="M 158.830866 216.635832 
L 161.642835 217.337377 
L 162.972358 216.192 
L 164.454803 214.156837 
L 164.652567 213.504 
L 165.215368 210.816 
L 165.538872 208.128 
L 165.661173 205.44 
L 165.587326 202.752 
L 165.301618 200.064 
L 164.770242 197.376 
L 164.454803 196.319239 
L 163.662968 194.688 
L 161.932012 192 
L 161.642835 191.637038 
L 158.830866 190.122845 
L 156.018898 191.079162 
L 155.440062 192 
L 154.352871 194.688 
L 153.793292 197.376 
L 153.602366 200.064 
L 153.692992 202.752 
L 154.018249 205.44 
L 154.554865 208.128 
L 155.293653 210.816 
L 156.018898 212.881568 
L 156.425068 213.504 
L 158.458364 216.192 
z
" style="fill:#3f4788;"/>
    <path clip-path="url(#pdbe952059b)" d="M 305.053228 207.788332 
L 305.849234 205.44 
L 306.284756 202.752 
L 306.417736 200.064 
L 306.354968 197.376 
L 306.162212 194.688 
L 305.883721 192 
L 305.550471 189.312 
L 305.183653 186.624 
L 305.053228 185.758665 
L 304.634656 183.936 
L 304.077221 181.248 
L 303.576435 178.56 
L 303.100061 175.872 
L 302.622216 173.184 
L 302.24126 171.178751 
L 302.044888 170.496 
L 301.24314 167.808 
L 300.457384 165.12 
L 299.646969 162.432 
L 299.429291 161.788221 
L 298.263078 159.744 
L 296.850566 157.056 
L 296.617323 156.63308 
L 293.805354 155.309809 
L 292.964901 157.056 
L 292.408437 159.744 
L 292.318208 162.432 
L 292.497507 165.12 
L 292.837385 167.808 
L 293.272239 170.496 
L 293.759891 173.184 
L 293.805354 173.405785 
L 294.567746 175.872 
L 295.295687 178.56 
L 295.933895 181.248 
L 296.500559 183.936 
L 296.617323 184.511826 
L 297.327112 186.624 
L 298.04295 189.312 
L 298.629598 192 
L 299.145914 194.688 
L 299.429291 196.204516 
L 299.857432 197.376 
L 300.740386 200.064 
L 301.533051 202.752 
L 302.24126 205.191993 
L 302.568548 205.44 
z
" style="fill:#3f4788;"/>
    <path clip-path="url(#pdbe952059b)" d="M 392.224252 196.750921 
L 395.03622 196.663279 
L 397.848189 195.456839 
L 399.050769 194.688 
L 400.660157 193.377787 
L 401.919531 192 
L 403.394897 189.312 
L 403.472126 189.111981 
L 404.187661 186.624 
L 404.657724 183.936 
L 404.966209 181.248 
L 405.170357 178.56 
L 405.283554 175.872 
L 405.293438 173.184 
L 405.167327 170.496 
L 404.851072 167.808 
L 404.261428 165.12 
L 403.472126 162.944126 
L 403.220066 162.432 
L 401.3225 159.744 
L 400.660157 159.048575 
L 397.848189 157.750074 
L 395.03622 158.453654 
L 393.772247 159.744 
L 392.224252 161.565583 
L 391.805583 162.432 
L 390.69722 165.12 
L 389.752629 167.808 
L 389.412283 168.955733 
L 389.078358 170.496 
L 388.599473 173.184 
L 388.213148 175.872 
L 387.919478 178.56 
L 387.726493 181.248 
L 387.651615 183.936 
L 387.725084 186.624 
L 387.996784 189.312 
L 388.550046 192 
L 389.412283 194.408152 
L 389.642396 194.688 
z
" style="fill:#3f4788;"/>
    <path clip-path="url(#pdbe952059b)" d="M 74.471811 178.707129 
L 75.072376 178.56 
L 77.28378 177.792537 
L 80.095748 175.963775 
L 80.300137 175.872 
L 82.907717 174.579119 
L 85.719685 174.634531 
L 88.531654 175.034764 
L 91.343622 174.718425 
L 93.284341 173.184 
L 94.155591 172.299737 
L 94.918617 170.496 
L 95.732362 167.808 
L 96.267919 165.12 
L 96.58378 162.432 
L 96.720627 159.744 
L 96.709474 157.056 
L 96.577412 154.368 
L 96.351552 151.68 
L 96.061233 148.992 
L 95.738351 146.304 
L 95.415726 143.616 
L 95.123885 140.928 
L 94.887197 138.24 
L 94.720574 135.552 
L 94.627702 132.864 
L 94.601014 130.176 
L 94.622966 127.488 
L 94.668031 124.8 
L 94.704998 122.112 
L 94.699418 119.424 
L 94.616027 116.736 
L 94.420954 114.048 
L 94.155591 111.929725 
L 94.008584 111.36 
L 93.045263 108.672 
L 91.864441 105.984 
L 91.343622 104.983712 
L 88.531654 103.933618 
L 87.102522 105.984 
L 86.247664 108.672 
L 85.915909 111.36 
L 85.874332 114.048 
L 86.013362 116.736 
L 86.264918 119.424 
L 86.575231 122.112 
L 86.895733 124.8 
L 87.1816 127.488 
L 87.393496 130.176 
L 87.499649 132.864 
L 87.476478 135.552 
L 87.307382 138.24 
L 86.980524 140.928 
L 86.486741 143.616 
L 85.818208 146.304 
L 85.719685 146.64275 
L 85.123971 148.992 
L 84.268928 151.68 
L 83.219449 154.368 
L 82.907717 155.134511 
L 81.237213 157.056 
L 80.095748 158.200772 
L 77.813633 157.056 
L 77.28378 156.87652 
L 75.328175 154.368 
L 74.471811 153.459592 
L 73.335751 151.68 
L 71.659843 149.291986 
L 71.45758 148.992 
L 69.497897 146.304 
L 68.847874 145.463741 
L 67.163729 143.616 
L 66.035906 142.411036 
L 63.997362 140.928 
L 63.223937 140.359733 
L 60.411969 139.668714 
L 58.296878 140.928 
L 57.6 141.665341 
L 57.6 143.616 
L 57.6 146.304 
L 57.6 148.992 
L 57.6 151.68 
L 57.6 154.368 
L 57.6 157.056 
L 57.6 159.744 
L 57.6 160.204411 
L 58.45784 162.432 
L 59.676298 165.12 
L 60.411969 166.542589 
L 61.19048 167.808 
L 62.894982 170.496 
L 63.223937 170.999646 
L 65.061505 173.184 
L 66.035906 174.393653 
L 67.769655 175.872 
L 68.847874 176.851783 
L 71.659843 178.331059 
L 73.43711 178.56 
z
" style="fill:#3f4788;"/>
    <path clip-path="url(#pdbe952059b)" d="M 366.916535 176.502283 
L 369.728504 177.581188 
L 372.312656 175.872 
L 372.540472 175.706874 
L 373.815725 173.184 
L 375.063395 170.496 
L 375.352441 169.826901 
L 375.920087 167.808 
L 376.630009 165.12 
L 377.299201 162.432 
L 377.928065 159.744 
L 378.164409 158.629548 
L 378.445046 157.056 
L 378.872853 154.368 
L 379.248615 151.68 
L 379.559405 148.992 
L 379.786147 146.304 
L 379.901149 143.616 
L 379.863938 140.928 
L 379.613152 138.24 
L 379.047868 135.552 
L 378.164409 133.263857 
L 377.976422 132.864 
L 376.257607 130.176 
L 375.352441 129.100675 
L 373.6333 127.488 
L 372.540472 126.540066 
L 369.728504 125.127729 
L 366.916535 125.572025 
L 365.350736 127.488 
L 364.104567 129.255044 
L 363.727793 130.176 
L 362.686936 132.864 
L 361.732168 135.552 
L 361.292598 136.928325 
L 360.86468 138.24 
L 360.076978 140.928 
L 359.404076 143.616 
L 358.875189 146.304 
L 358.514392 148.992 
L 358.48063 149.519135 
L 358.228054 151.68 
L 358.279571 154.368 
L 358.48063 155.654091 
L 358.604974 157.056 
L 359.057329 159.744 
L 359.726925 162.432 
L 360.614465 165.12 
L 361.292598 166.776086 
L 361.67461 167.808 
L 362.857868 170.496 
L 364.104567 172.919432 
L 364.286144 173.184 
L 366.372836 175.872 
z
" style="fill:#3f4788;"/>
    <path clip-path="url(#pdbe952059b)" d="M 119.463307 171.306216 
L 122.275276 170.874711 
L 122.62383 170.496 
L 124.338969 167.808 
L 125.087244 165.73517 
L 125.218887 165.12 
L 125.564699 162.432 
L 125.687605 159.744 
L 125.627985 157.056 
L 125.414232 154.368 
L 125.087244 151.849365 
L 125.063606 151.68 
L 124.548573 148.992 
L 123.943554 146.304 
L 123.260748 143.616 
L 122.508877 140.928 
L 122.275276 140.177137 
L 121.508104 138.24 
L 120.407555 135.552 
L 119.463307 133.28864 
L 119.145748 132.864 
L 117.198142 130.176 
L 116.651339 129.378475 
L 113.83937 129.058074 
L 113.23453 130.176 
L 112.142835 132.864 
L 111.378157 135.552 
L 111.027402 137.258481 
L 110.910798 138.24 
L 110.666238 140.928 
L 110.495833 143.616 
L 110.399451 146.304 
L 110.38264 148.992 
L 110.457021 151.68 
L 110.641379 154.368 
L 110.963633 157.056 
L 111.027402 157.424521 
L 111.541082 159.744 
L 112.344416 162.432 
L 113.398573 165.12 
L 113.83937 166.03791 
L 115.139142 167.808 
L 116.651339 169.68336 
L 118.079666 170.496 
z
" style="fill:#3f4788;"/>
    <path clip-path="url(#pdbe952059b)" d="M 172.890709 160.112139 
L 173.997643 159.744 
L 175.702677 158.643421 
L 176.041111 157.056 
L 176.343676 154.368 
L 176.441327 151.68 
L 176.40437 148.992 
L 176.278043 146.304 
L 176.092038 143.616 
L 175.866116 140.928 
L 175.702677 139.227572 
L 175.557112 138.24 
L 175.131913 135.552 
L 174.707078 132.864 
L 174.284328 130.176 
L 173.862308 127.488 
L 173.435942 124.8 
L 172.995269 122.112 
L 172.890709 121.500054 
L 172.238372 119.424 
L 171.39941 116.736 
L 170.517275 114.048 
L 170.07874 112.833175 
L 167.437355 111.36 
L 167.266772 111.268016 
L 167.214149 111.36 
L 165.951671 114.048 
L 165.049638 116.736 
L 164.454803 119.417251 
L 164.454067 119.424 
L 164.253488 122.112 
L 164.143291 124.8 
L 164.112697 127.488 
L 164.153307 130.176 
L 164.25983 132.864 
L 164.430515 135.552 
L 164.454803 135.822596 
L 164.740218 138.24 
L 165.132901 140.928 
L 165.604409 143.616 
L 166.161586 146.304 
L 166.811343 148.992 
L 167.266772 150.61908 
L 167.721628 151.68 
L 168.932053 154.368 
L 170.07874 156.90908 
L 170.227936 157.056 
L 172.608577 159.744 
z
" style="fill:#3f4788;"/>
    <path clip-path="url(#pdbe952059b)" d="M 392.224252 132.989301 
L 395.03622 134.308305 
L 397.848189 134.74172 
L 400.660157 134.403985 
L 403.472126 133.459494 
L 404.765261 132.864 
L 406.284094 132.061314 
L 408.975233 130.176 
L 409.096063 130.065399 
L 411.301785 127.488 
L 411.908031 126.396253 
L 412.621318 124.8 
L 413.560061 122.112 
L 414.347692 119.424 
L 414.72 118.165469 
L 414.72 116.736 
L 414.72 114.048 
L 414.72 111.36 
L 414.72 108.672 
L 414.72 105.984 
L 414.72 103.296 
L 414.72 101.261622 
L 414.120751 103.296 
L 413.23314 105.984 
L 412.237244 108.672 
L 411.908031 109.520184 
L 411.151524 111.36 
L 409.944025 114.048 
L 409.096063 115.768067 
L 408.519346 116.736 
L 406.767395 119.424 
L 406.284094 120.097572 
L 404.259136 122.112 
L 403.472126 122.830797 
L 400.660157 124.271165 
L 397.848189 124.507062 
L 395.03622 123.432476 
L 393.604718 122.112 
L 392.224252 120.682753 
L 391.441391 119.424 
L 390.002799 116.736 
L 389.412283 115.463505 
L 388.882172 114.048 
L 387.997559 111.36 
L 387.253214 108.672 
L 386.628088 105.984 
L 386.600315 105.849522 
L 386.080581 103.296 
L 385.623559 100.608 
L 385.252736 97.92 
L 384.964199 95.232 
L 384.754881 92.544 
L 384.622458 89.856 
L 384.565656 87.168 
L 384.584809 84.48 
L 384.682659 81.792 
L 384.865556 79.104 
L 385.145376 76.416 
L 385.542931 73.728 
L 386.094535 71.04 
L 386.600315 69.208976 
L 386.763491 68.352 
L 387.36437 65.664 
L 388.085169 62.976 
L 388.951812 60.288 
L 389.412283 59.050186 
L 389.874595 57.6 
L 390.828786 54.912 
L 391.923594 52.224 
L 392.224252 51.540805 
L 393.237965 49.536 
L 394.846604 46.848 
L 395.03622 46.562285 
L 397.490783 44.16 
L 397.848189 43.85932 
L 400.660157 42.674302 
L 403.472126 42.481188 
L 406.284094 43.057529 
L 408.581546 44.16 
L 409.096063 44.438233 
L 411.884729 46.848 
L 411.908031 46.873205 
L 413.86814 49.536 
L 414.72 51.163132 
L 414.72 49.536 
L 414.72 46.848 
L 414.72 44.16 
L 414.72 41.472553 
L 414.719351 41.472 
L 411.908031 41.472 
L 409.096063 41.472 
L 406.284094 41.472 
L 403.472126 41.472 
L 400.660157 41.472 
L 397.848189 41.472 
L 395.03622 41.472 
L 393.461986 41.472 
L 392.224252 43.366362 
L 391.84895 44.16 
L 390.631172 46.848 
L 389.561041 49.536 
L 389.412283 49.925019 
L 388.314577 52.224 
L 387.237266 54.912 
L 386.600315 56.771145 
L 385.555836 57.6 
L 383.910157 60.288 
L 383.788346 60.611028 
L 383.532032 60.288 
L 382.315061 57.6 
L 381.723854 54.912 
L 381.32105 52.224 
L 380.976378 49.676087 
L 380.933234 49.536 
L 379.884107 46.848 
L 378.390827 44.16 
L 378.164409 43.850488 
L 377.738048 44.16 
L 375.352441 46.295066 
L 375.182632 46.848 
L 374.517854 49.536 
L 374.00415 52.224 
L 373.609334 54.912 
L 373.317405 57.6 
L 373.122354 60.288 
L 373.025393 62.976 
L 373.033891 65.664 
L 373.161321 68.352 
L 373.428002 71.04 
L 373.862684 73.728 
L 374.505375 76.416 
L 375.352441 78.940874 
L 375.458575 79.104 
L 377.279401 81.792 
L 378.164409 83.122361 
L 378.546559 84.48 
L 379.205291 87.168 
L 379.775577 89.856 
L 380.304181 92.544 
L 380.813662 95.232 
L 380.976378 96.07241 
L 381.185049 97.92 
L 381.52216 100.608 
L 381.890661 103.296 
L 382.285748 105.984 
L 382.702327 108.672 
L 383.139888 111.36 
L 383.611541 114.048 
L 383.788346 115.028227 
L 384.078109 116.736 
L 384.562218 119.424 
L 385.144519 122.112 
L 385.960197 124.8 
L 386.600315 126.244873 
L 387.16113 127.488 
L 388.964448 130.176 
L 389.412283 130.634936 
L 392.036663 132.864 
z
" style="fill:#3f4788;"/>
    <path clip-path="url(#pdbe952059b)" d="M 57.839137 108.672 
L 59.223873 105.984 
L 60.411969 103.417771 
L 60.867364 103.296 
L 63.223937 102.510484 
L 64.076924 103.296 
L 66.035906 105.029242 
L 67.188894 105.984 
L 68.847874 107.316807 
L 71.659843 108.045023 
L 74.471811 106.670501 
L 75.11012 105.984 
L 76.72354 103.296 
L 77.28378 101.746567 
L 77.728215 100.608 
L 78.335345 97.92 
L 78.621202 95.232 
L 78.698219 92.544 
L 78.613156 89.856 
L 78.380678 87.168 
L 77.996923 84.48 
L 77.446509 81.792 
L 77.28378 81.182381 
L 76.638558 79.104 
L 75.467674 76.416 
L 74.471811 74.700297 
L 73.548533 73.728 
L 71.659843 72.125988 
L 68.959488 71.04 
L 68.847874 70.996215 
L 66.035906 69.486496 
L 65.545146 68.352 
L 64.607229 65.664 
L 63.851666 62.976 
L 63.223937 60.527317 
L 63.193626 60.288 
L 62.81137 57.6 
L 62.312578 54.912 
L 61.59877 52.224 
L 60.501282 49.536 
L 60.411969 49.370317 
L 59.310767 46.848 
L 57.6 44.430561 
L 57.6 46.848 
L 57.6 49.536 
L 57.6 52.224 
L 57.6 54.912 
L 57.6 57.6 
L 57.6 60.288 
L 57.6 60.733231 
L 57.978159 62.976 
L 58.303544 65.664 
L 58.529018 68.352 
L 58.674505 71.04 
L 58.750453 73.728 
L 58.759673 76.416 
L 58.698176 79.104 
L 58.555388 81.792 
L 58.313995 84.48 
L 57.949712 87.168 
L 57.6 89.030399 
L 57.6 89.856 
L 57.6 92.544 
L 57.6 95.232 
L 57.6 97.92 
L 57.6 100.608 
L 57.6 103.296 
L 57.6 105.984 
L 57.6 108.672 
L 57.6 109.145478 
z
" style="fill:#3f4788;"/>
    <path clip-path="url(#pdbe952059b)" d="M 130.711181 103.824285 
L 133.52315 105.59848 
L 136.335118 103.496046 
L 136.439576 103.296 
L 137.619152 100.608 
L 138.549416 97.92 
L 139.147087 95.429835 
L 139.181346 95.232 
L 139.432453 92.544 
L 139.46881 89.856 
L 139.307771 87.168 
L 139.147087 85.88799 
L 138.922537 84.48 
L 138.312107 81.792 
L 137.574996 79.104 
L 136.745512 76.416 
L 136.335118 75.228728 
L 135.556975 73.728 
L 134.08334 71.04 
L 133.52315 70.070661 
L 131.248303 68.352 
L 130.711181 67.941402 
L 129.623705 68.352 
L 127.899213 69.270544 
L 127.136956 71.04 
L 126.321902 73.728 
L 125.788914 76.416 
L 125.476423 79.104 
L 125.350136 81.792 
L 125.391061 84.48 
L 125.587789 87.168 
L 125.931143 89.856 
L 126.410616 92.544 
L 127.012496 95.232 
L 127.719642 97.92 
L 127.899213 98.499928 
L 129.001051 100.608 
L 130.419969 103.296 
z
" style="fill:#3f4788;"/>
    <path clip-path="url(#pdbe952059b)" d="M 184.138583 95.973486 
L 185.047338 95.232 
L 186.950551 93.078552 
L 187.10832 92.544 
L 187.765398 89.856 
L 188.283729 87.168 
L 188.688522 84.48 
L 188.990873 81.792 
L 189.192125 79.104 
L 189.285943 76.416 
L 189.259334 73.728 
L 189.093321 71.04 
L 188.763808 68.352 
L 188.24321 65.664 
L 187.50344 62.976 
L 186.950551 61.439609 
L 186.375794 60.288 
L 184.793454 57.6 
L 184.138583 56.620344 
L 181.326614 54.932622 
L 178.514646 56.644659 
L 178.00947 57.6 
L 176.814668 60.288 
L 175.88175 62.976 
L 175.702677 63.69025 
L 175.355719 65.664 
L 175.047891 68.352 
L 174.901552 71.04 
L 174.909532 73.728 
L 175.063575 76.416 
L 175.359242 79.104 
L 175.702677 81.213514 
L 175.814576 81.792 
L 176.461702 84.48 
L 177.260851 87.168 
L 178.272165 89.856 
L 178.514646 90.389294 
L 179.856422 92.544 
L 181.326614 94.576005 
L 182.644556 95.232 
z
" style="fill:#3f4788;"/>
    <path clip-path="url(#pdbe952059b)" d="M 276.933543 68.523372 
L 277.001098 68.352 
L 277.508015 65.664 
L 277.480048 62.976 
L 276.981821 60.288 
L 276.933543 60.148645 
L 274.121575 58.766299 
L 273.674579 60.288 
L 273.491421 62.976 
L 273.768589 65.664 
L 274.121575 67.170247 
L 276.482212 68.352 
z
" style="fill:#3f4788;"/>
    <path clip-path="url(#pdbe952059b)" d="M 352.856693 47.371848 
L 353.201143 46.848 
L 355.031748 44.16 
L 355.668661 43.24114 
L 356.131046 41.472 
L 355.668661 41.472 
L 352.856693 41.472 
L 350.044724 41.472 
L 348.353568 41.472 
L 349.588632 44.16 
L 350.044724 45.237433 
L 352.308962 46.848 
z
" style="fill:#3f4788;"/>
   </g>
   <g id="PathCollection_3">
    <path clip-path="url(#pdbe952059b)" d="M 395.03622 123.432476 
L 397.848189 124.507062 
L 400.660157 124.271165 
L 403.472126 122.830797 
L 404.259136 122.112 
L 406.284094 120.097572 
L 406.767395 119.424 
L 408.519346 116.736 
L 409.096063 115.768067 
L 409.944025 114.048 
L 411.151524 111.36 
L 411.908031 109.520184 
L 412.237244 108.672 
L 413.23314 105.984 
L 414.120751 103.296 
L 414.72 101.261622 
L 414.72 100.608 
L 414.72 97.92 
L 414.72 95.232 
L 414.72 92.544 
L 414.72 89.856 
L 414.72 87.168 
L 414.72 84.48 
L 414.72 84.287547 
L 414.70054 84.48 
L 414.348215 87.168 
L 413.899796 89.856 
L 413.345353 92.544 
L 412.674306 95.232 
L 411.908031 97.820289 
L 411.877378 97.92 
L 410.972707 100.608 
L 409.93514 103.296 
L 409.096063 105.247618 
L 408.719278 105.984 
L 407.252125 108.672 
L 406.284094 110.300734 
L 405.403391 111.36 
L 403.472126 113.566766 
L 402.673513 114.048 
L 400.660157 115.262294 
L 397.848189 115.384656 
L 395.534918 114.048 
L 395.03622 113.744076 
L 393.235022 111.36 
L 392.224252 109.81967 
L 391.71031 108.672 
L 390.65246 105.984 
L 389.781821 103.296 
L 389.412283 101.934099 
L 389.101418 100.608 
L 388.578049 97.92 
L 388.17318 95.232 
L 387.878419 92.544 
L 387.686704 89.856 
L 387.592333 87.168 
L 387.591152 84.48 
L 387.680802 81.792 
L 387.86102 79.104 
L 388.133993 76.416 
L 388.504811 73.728 
L 388.982087 71.04 
L 389.412283 69.083332 
L 389.559021 68.352 
L 390.187161 65.664 
L 390.918827 62.976 
L 391.767772 60.288 
L 392.224252 59.006617 
L 392.773879 57.6 
L 393.960846 54.912 
L 395.03622 52.805611 
L 395.444583 52.224 
L 397.599286 49.536 
L 397.848189 49.261444 
L 400.660157 47.611755 
L 403.472126 47.312826 
L 406.284094 48.166272 
L 408.191982 49.536 
L 409.096063 50.308814 
L 410.584451 52.224 
L 411.908031 54.487895 
L 412.115545 54.912 
L 413.162573 57.6 
L 413.915534 60.288 
L 414.454447 62.976 
L 414.72 64.839451 
L 414.72 62.976 
L 414.72 60.288 
L 414.72 57.6 
L 414.72 54.912 
L 414.72 52.224 
L 414.72 51.163132 
L 413.86814 49.536 
L 411.908031 46.873205 
L 411.884729 46.848 
L 409.096063 44.438233 
L 408.581546 44.16 
L 406.284094 43.057529 
L 403.472126 42.481188 
L 400.660157 42.674302 
L 397.848189 43.85932 
L 397.490783 44.16 
L 395.03622 46.562285 
L 394.846604 46.848 
L 393.237965 49.536 
L 392.224252 51.540805 
L 391.923594 52.224 
L 390.828786 54.912 
L 389.874595 57.6 
L 389.412283 59.050186 
L 388.951812 60.288 
L 388.085169 62.976 
L 387.36437 65.664 
L 386.763491 68.352 
L 386.600315 69.208976 
L 386.094535 71.04 
L 385.542931 73.728 
L 385.145376 76.416 
L 384.865556 79.104 
L 384.682659 81.792 
L 384.584809 84.48 
L 384.565656 87.168 
L 384.622458 89.856 
L 384.754881 92.544 
L 384.964199 95.232 
L 385.252736 97.92 
L 385.623559 100.608 
L 386.080581 103.296 
L 386.600315 105.849522 
L 386.628088 105.984 
L 387.253214 108.672 
L 387.997559 111.36 
L 388.882172 114.048 
L 389.412283 115.463505 
L 390.002799 116.736 
L 391.441391 119.424 
L 392.224252 120.682753 
L 393.604718 122.112 
z
" style="fill:#2e6e8e;"/>
    <path clip-path="url(#pdbe952059b)" d="M 57.949712 87.168 
L 58.313995 84.48 
L 58.555388 81.792 
L 58.698176 79.104 
L 58.759673 76.416 
L 58.750453 73.728 
L 58.674505 71.04 
L 58.529018 68.352 
L 58.303544 65.664 
L 57.978159 62.976 
L 57.6 60.733231 
L 57.6 62.976 
L 57.6 65.664 
L 57.6 68.352 
L 57.6 71.04 
L 57.6 73.728 
L 57.6 76.416 
L 57.6 79.104 
L 57.6 81.792 
L 57.6 84.48 
L 57.6 87.168 
L 57.6 89.030399 
z
" style="fill:#2e6e8e;"/>
   </g>
   <g id="PathCollection_4">
    <path clip-path="url(#pdbe952059b)" d="M 397.848189 115.384656 
L 400.660157 115.262294 
L 402.673513 114.048 
L 403.472126 113.566766 
L 405.403391 111.36 
L 406.284094 110.300734 
L 407.252125 108.672 
L 408.719278 105.984 
L 409.096063 105.247618 
L 409.93514 103.296 
L 410.972707 100.608 
L 411.877378 97.92 
L 411.908031 97.820289 
L 412.674306 95.232 
L 413.345353 92.544 
L 413.899796 89.856 
L 414.348215 87.168 
L 414.70054 84.48 
L 414.72 84.287547 
L 414.72 81.792 
L 414.72 79.104 
L 414.72 76.416 
L 414.72 73.728 
L 414.72 71.04 
L 414.72 68.352 
L 414.72 65.664 
L 414.72 64.839451 
L 414.454447 62.976 
L 413.915534 60.288 
L 413.162573 57.6 
L 412.115545 54.912 
L 411.908031 54.487895 
L 410.584451 52.224 
L 409.096063 50.308814 
L 408.191982 49.536 
L 406.284094 48.166272 
L 403.472126 47.312826 
L 400.660157 47.611755 
L 397.848189 49.261444 
L 397.599286 49.536 
L 395.444583 52.224 
L 395.03622 52.805611 
L 393.960846 54.912 
L 392.773879 57.6 
L 392.224252 59.006617 
L 391.767772 60.288 
L 390.918827 62.976 
L 390.187161 65.664 
L 389.559021 68.352 
L 389.412283 69.083332 
L 388.982087 71.04 
L 388.504811 73.728 
L 388.133993 76.416 
L 387.86102 79.104 
L 387.680802 81.792 
L 387.591152 84.48 
L 387.592333 87.168 
L 387.686704 89.856 
L 387.878419 92.544 
L 388.17318 95.232 
L 388.578049 97.92 
L 389.101418 100.608 
L 389.412283 101.934099 
L 389.781821 103.296 
L 390.65246 105.984 
L 391.71031 108.672 
L 392.224252 109.81967 
L 393.235022 111.36 
L 395.03622 113.744076 
L 395.534918 114.048 
z
M 396.368292 105.984 
L 395.03622 104.812762 
L 394.169177 103.296 
L 392.87727 100.608 
L 392.224252 98.934591 
L 391.935042 97.92 
L 391.307378 95.232 
L 390.837147 92.544 
L 390.510161 89.856 
L 390.314164 87.168 
L 390.238935 84.48 
L 390.276413 81.792 
L 390.420823 79.104 
L 390.668795 76.416 
L 391.019503 73.728 
L 391.474864 71.04 
L 392.039826 68.352 
L 392.224252 67.614498 
L 392.755953 65.664 
L 393.609271 62.976 
L 394.603819 60.288 
L 395.03622 59.260148 
L 395.970373 57.6 
L 397.71815 54.912 
L 397.848189 54.73339 
L 400.660157 52.624244 
L 403.472126 52.268245 
L 406.284094 53.557677 
L 407.574421 54.912 
L 409.096063 56.935184 
L 409.443956 57.6 
L 410.552075 60.288 
L 411.352442 62.976 
L 411.908031 65.619336 
L 411.916495 65.664 
L 412.277727 68.352 
L 412.494019 71.04 
L 412.585218 73.728 
L 412.563223 76.416 
L 412.433819 79.104 
L 412.197902 81.792 
L 411.908031 84.057159 
L 411.851968 84.48 
L 411.391061 87.168 
L 410.812738 89.856 
L 410.108482 92.544 
L 409.268342 95.232 
L 409.096063 95.724551 
L 408.17854 97.92 
L 406.905792 100.608 
L 406.284094 101.805554 
L 405.18614 103.296 
L 403.472126 105.473121 
L 402.667164 105.984 
L 400.660157 107.252069 
L 397.848189 107.149656 
z
" style="fill:#21918c;"/>
   </g>
   <g id="PathCollection_5">
    <path clip-path="url(#pdbe952059b)" d="M 397.848189 107.149656 
L 400.660157 107.252069 
L 402.667164 105.984 
L 403.472126 105.473121 
L 405.18614 103.296 
L 406.284094 101.805554 
L 406.905792 100.608 
L 408.17854 97.92 
L 409.096063 95.724551 
L 409.268342 95.232 
L 410.108482 92.544 
L 410.812738 89.856 
L 411.391061 87.168 
L 411.851968 84.48 
L 411.908031 84.057159 
L 412.197902 81.792 
L 412.433819 79.104 
L 412.563223 76.416 
L 412.585218 73.728 
L 412.494019 71.04 
L 412.277727 68.352 
L 411.916495 65.664 
L 411.908031 65.619336 
L 411.352442 62.976 
L 410.552075 60.288 
L 409.443956 57.6 
L 409.096063 56.935184 
L 407.574421 54.912 
L 406.284094 53.557677 
L 403.472126 52.268245 
L 400.660157 52.624244 
L 397.848189 54.73339 
L 397.71815 54.912 
L 395.970373 57.6 
L 395.03622 59.260148 
L 394.603819 60.288 
L 393.609271 62.976 
L 392.755953 65.664 
L 392.224252 67.614498 
L 392.039826 68.352 
L 391.474864 71.04 
L 391.019503 73.728 
L 390.668795 76.416 
L 390.420823 79.104 
L 390.276413 81.792 
L 390.238935 84.48 
L 390.314164 87.168 
L 390.510161 89.856 
L 390.837147 92.544 
L 391.307378 95.232 
L 391.935042 97.92 
L 392.224252 98.934591 
L 392.87727 100.608 
L 394.169177 103.296 
L 395.03622 104.812762 
L 396.368292 105.984 
z
M 396.89221 97.92 
L 395.053747 95.232 
L 395.03622 95.199896 
L 394.208421 92.544 
L 393.600733 89.856 
L 393.1974 87.168 
L 392.975796 84.48 
L 392.917274 81.792 
L 393.007203 79.104 
L 393.23497 76.416 
L 393.594041 73.728 
L 394.082139 71.04 
L 394.701632 68.352 
L 395.03622 67.159581 
L 395.592055 65.664 
L 396.768551 62.976 
L 397.848189 60.867232 
L 398.390028 60.288 
L 400.660157 58.145802 
L 403.472126 57.819394 
L 406.284094 59.926137 
L 406.513769 60.288 
L 407.852741 62.976 
L 408.799231 65.664 
L 409.096063 66.884213 
L 409.366818 68.352 
L 409.677834 71.04 
L 409.821889 73.728 
L 409.816926 76.416 
L 409.673444 79.104 
L 409.396098 81.792 
L 409.096063 83.764341 
L 408.964651 84.48 
L 408.323833 87.168 
L 407.527936 89.856 
L 406.570087 92.544 
L 406.284094 93.247127 
L 405.108422 95.232 
L 403.472126 97.708684 
L 403.164025 97.92 
L 400.660157 99.579018 
L 397.848189 99.042976 
z
" style="fill:#2db27d;"/>
   </g>
   <g id="PathCollection_6">
    <path clip-path="url(#pdbe952059b)" d="M 397.848189 99.042976 
L 400.660157 99.579018 
L 403.164025 97.92 
L 403.472126 97.708684 
L 405.108422 95.232 
L 406.284094 93.247127 
L 406.570087 92.544 
L 407.527936 89.856 
L 408.323833 87.168 
L 408.964651 84.48 
L 409.096063 83.764341 
L 409.396098 81.792 
L 409.673444 79.104 
L 409.816926 76.416 
L 409.821889 73.728 
L 409.677834 71.04 
L 409.366818 68.352 
L 409.096063 66.884213 
L 408.799231 65.664 
L 407.852741 62.976 
L 406.513769 60.288 
L 406.284094 59.926137 
L 403.472126 57.819394 
L 400.660157 58.145802 
L 398.390028 60.288 
L 397.848189 60.867232 
L 396.768551 62.976 
L 395.592055 65.664 
L 395.03622 67.159581 
L 394.701632 68.352 
L 394.082139 71.04 
L 393.594041 73.728 
L 393.23497 76.416 
L 393.007203 79.104 
L 392.917274 81.792 
L 392.975796 84.48 
L 393.1974 87.168 
L 393.600733 89.856 
L 394.208421 92.544 
L 395.03622 95.199896 
L 395.053747 95.232 
L 396.89221 97.92 
z
M 398.790027 89.856 
L 397.848189 89.099979 
L 397.156969 87.168 
L 396.536504 84.48 
L 396.224924 81.792 
L 396.178583 79.104 
L 396.36495 76.416 
L 396.761686 73.728 
L 397.356126 71.04 
L 397.848189 69.373171 
L 398.42263 68.352 
L 400.262314 65.664 
L 400.660157 65.173119 
L 403.472126 65.148725 
L 403.877117 65.664 
L 405.385847 68.352 
L 406.284094 70.988998 
L 406.293681 71.04 
L 406.562427 73.728 
L 406.607618 76.416 
L 406.450997 79.104 
L 406.284094 80.404511 
L 406.009314 81.792 
L 405.220079 84.48 
L 404.195105 87.168 
L 403.472126 88.723504 
L 402.108015 89.856 
L 400.660157 90.947523 
z
" style="fill:#73d056;"/>
   </g>
   <g id="PathCollection_7">
    <path clip-path="url(#pdbe952059b)" d="M 400.660157 90.947523 
L 402.108015 89.856 
L 403.472126 88.723504 
L 404.195105 87.168 
L 405.220079 84.48 
L 406.009314 81.792 
L 406.284094 80.404511 
L 406.450997 79.104 
L 406.607618 76.416 
L 406.562427 73.728 
L 406.293681 71.04 
L 406.284094 70.988998 
L 405.385847 68.352 
L 403.877117 65.664 
L 403.472126 65.148725 
L 400.660157 65.173119 
L 400.262314 65.664 
L 398.42263 68.352 
L 397.848189 69.373171 
L 397.356126 71.04 
L 396.761686 73.728 
L 396.36495 76.416 
L 396.178583 79.104 
L 396.224924 81.792 
L 396.536504 84.48 
L 397.156969 87.168 
L 397.848189 89.099979 
L 398.790027 89.856 
z
" style="fill:#d0e11c;"/>
   </g>
   <g id="matplotlib.axis_1">
    <g id="xtick_1">
     <g id="line2d_1">
      <defs>
       <path d="M 0 0 
L 0 3.5 
" id="m86202ccea5" style="stroke:#000000;stroke-width:0.8;"/>
      </defs>
      <g>
       <use style="stroke:#000000;stroke-width:0.8;" x="114.818222" xlink:href="#m86202ccea5" y="307.584"/>
      </g>
     </g>
     <g id="text_1">
      <!-- 2 -->
      <defs>
       <path d="M 19.1875 8.296875 
L 53.609375 8.296875 
L 53.609375 0 
L 7.328125 0 
L 7.328125 8.296875 
Q 12.9375 14.109375 22.625 23.890625 
Q 32.328125 33.6875 34.8125 36.53125 
Q 39.546875 41.84375 41.421875 45.53125 
Q 43.3125 49.21875 43.3125 52.78125 
Q 43.3125 58.59375 39.234375 62.25 
Q 35.15625 65.921875 28.609375 65.921875 
Q 23.96875 65.921875 18.8125 64.3125 
Q 13.671875 62.703125 7.8125 59.421875 
L 7.8125 69.390625 
Q 13.765625 71.78125 18.9375 73 
Q 24.125 74.21875 28.421875 74.21875 
Q 39.75 74.21875 46.484375 68.546875 
Q 53.21875 62.890625 53.21875 53.421875 
Q 53.21875 48.921875 51.53125 44.890625 
Q 49.859375 40.875 45.40625 35.40625 
Q 44.1875 33.984375 37.640625 27.21875 
Q 31.109375 20.453125 19.1875 8.296875 
z
" id="DejaVuSans-50"/>
      </defs>
      <g transform="translate(111.636972 322.182437)scale(0.1 -0.1)">
       <use xlink:href="#DejaVuSans-50"/>
      </g>
     </g>
    </g>
    <g id="xtick_2">
     <g id="line2d_2">
      <g>
       <use style="stroke:#000000;stroke-width:0.8;" x="174.848413" xlink:href="#m86202ccea5" y="307.584"/>
      </g>
     </g>
     <g id="text_2">
      <!-- 4 -->
      <defs>
       <path d="M 37.796875 64.3125 
L 12.890625 25.390625 
L 37.796875 25.390625 
z
M 35.203125 72.90625 
L 47.609375 72.90625 
L 47.609375 25.390625 
L 58.015625 25.390625 
L 58.015625 17.1875 
L 47.609375 17.1875 
L 47.609375 0 
L 37.796875 0 
L 37.796875 17.1875 
L 4.890625 17.1875 
L 4.890625 26.703125 
z
" id="DejaVuSans-52"/>
      </defs>
      <g transform="translate(171.667163 322.182437)scale(0.1 -0.1)">
       <use xlink:href="#DejaVuSans-52"/>
      </g>
     </g>
    </g>
    <g id="xtick_3">
     <g id="line2d_3">
      <g>
       <use style="stroke:#000000;stroke-width:0.8;" x="234.878604" xlink:href="#m86202ccea5" y="307.584"/>
      </g>
     </g>
     <g id="text_3">
      <!-- 6 -->
      <defs>
       <path d="M 33.015625 40.375 
Q 26.375 40.375 22.484375 35.828125 
Q 18.609375 31.296875 18.609375 23.390625 
Q 18.609375 15.53125 22.484375 10.953125 
Q 26.375 6.390625 33.015625 6.390625 
Q 39.65625 6.390625 43.53125 10.953125 
Q 47.40625 15.53125 47.40625 23.390625 
Q 47.40625 31.296875 43.53125 35.828125 
Q 39.65625 40.375 33.015625 40.375 
z
M 52.59375 71.296875 
L 52.59375 62.3125 
Q 48.875 64.0625 45.09375 64.984375 
Q 41.3125 65.921875 37.59375 65.921875 
Q 27.828125 65.921875 22.671875 59.328125 
Q 17.53125 52.734375 16.796875 39.40625 
Q 19.671875 43.65625 24.015625 45.921875 
Q 28.375 48.1875 33.59375 48.1875 
Q 44.578125 48.1875 50.953125 41.515625 
Q 57.328125 34.859375 57.328125 23.390625 
Q 57.328125 12.15625 50.6875 5.359375 
Q 44.046875 -1.421875 33.015625 -1.421875 
Q 20.359375 -1.421875 13.671875 8.265625 
Q 6.984375 17.96875 6.984375 36.375 
Q 6.984375 53.65625 15.1875 63.9375 
Q 23.390625 74.21875 37.203125 74.21875 
Q 40.921875 74.21875 44.703125 73.484375 
Q 48.484375 72.75 52.59375 71.296875 
z
" id="DejaVuSans-54"/>
      </defs>
      <g transform="translate(231.697354 322.182437)scale(0.1 -0.1)">
       <use xlink:href="#DejaVuSans-54"/>
      </g>
     </g>
    </g>
    <g id="xtick_4">
     <g id="line2d_4">
      <g>
       <use style="stroke:#000000;stroke-width:0.8;" x="294.908794" xlink:href="#m86202ccea5" y="307.584"/>
      </g>
     </g>
     <g id="text_4">
      <!-- 8 -->
      <defs>
       <path d="M 31.78125 34.625 
Q 24.75 34.625 20.71875 30.859375 
Q 16.703125 27.09375 16.703125 20.515625 
Q 16.703125 13.921875 20.71875 10.15625 
Q 24.75 6.390625 31.78125 6.390625 
Q 38.8125 6.390625 42.859375 10.171875 
Q 46.921875 13.96875 46.921875 20.515625 
Q 46.921875 27.09375 42.890625 30.859375 
Q 38.875 34.625 31.78125 34.625 
z
M 21.921875 38.8125 
Q 15.578125 40.375 12.03125 44.71875 
Q 8.5 49.078125 8.5 55.328125 
Q 8.5 64.0625 14.71875 69.140625 
Q 20.953125 74.21875 31.78125 74.21875 
Q 42.671875 74.21875 48.875 69.140625 
Q 55.078125 64.0625 55.078125 55.328125 
Q 55.078125 49.078125 51.53125 44.71875 
Q 48 40.375 41.703125 38.8125 
Q 48.828125 37.15625 52.796875 32.3125 
Q 56.78125 27.484375 56.78125 20.515625 
Q 56.78125 9.90625 50.3125 4.234375 
Q 43.84375 -1.421875 31.78125 -1.421875 
Q 19.734375 -1.421875 13.25 4.234375 
Q 6.78125 9.90625 6.78125 20.515625 
Q 6.78125 27.484375 10.78125 32.3125 
Q 14.796875 37.15625 21.921875 38.8125 
z
M 18.3125 54.390625 
Q 18.3125 48.734375 21.84375 45.5625 
Q 25.390625 42.390625 31.78125 42.390625 
Q 38.140625 42.390625 41.71875 45.5625 
Q 45.3125 48.734375 45.3125 54.390625 
Q 45.3125 60.0625 41.71875 63.234375 
Q 38.140625 66.40625 31.78125 66.40625 
Q 25.390625 66.40625 21.84375 63.234375 
Q 18.3125 60.0625 18.3125 54.390625 
z
" id="DejaVuSans-56"/>
      </defs>
      <g transform="translate(291.727544 322.182437)scale(0.1 -0.1)">
       <use xlink:href="#DejaVuSans-56"/>
      </g>
     </g>
    </g>
    <g id="xtick_5">
     <g id="line2d_5">
      <g>
       <use style="stroke:#000000;stroke-width:0.8;" x="354.938985" xlink:href="#m86202ccea5" y="307.584"/>
      </g>
     </g>
     <g id="text_5">
      <!-- 10 -->
      <defs>
       <path d="M 12.40625 8.296875 
L 28.515625 8.296875 
L 28.515625 63.921875 
L 10.984375 60.40625 
L 10.984375 69.390625 
L 28.421875 72.90625 
L 38.28125 72.90625 
L 38.28125 8.296875 
L 54.390625 8.296875 
L 54.390625 0 
L 12.40625 0 
z
" id="DejaVuSans-49"/>
       <path d="M 31.78125 66.40625 
Q 24.171875 66.40625 20.328125 58.90625 
Q 16.5 51.421875 16.5 36.375 
Q 16.5 21.390625 20.328125 13.890625 
Q 24.171875 6.390625 31.78125 6.390625 
Q 39.453125 6.390625 43.28125 13.890625 
Q 47.125 21.390625 47.125 36.375 
Q 47.125 51.421875 43.28125 58.90625 
Q 39.453125 66.40625 31.78125 66.40625 
z
M 31.78125 74.21875 
Q 44.046875 74.21875 50.515625 64.515625 
Q 56.984375 54.828125 56.984375 36.375 
Q 56.984375 17.96875 50.515625 8.265625 
Q 44.046875 -1.421875 31.78125 -1.421875 
Q 19.53125 -1.421875 13.0625 8.265625 
Q 6.59375 17.96875 6.59375 36.375 
Q 6.59375 54.828125 13.0625 64.515625 
Q 19.53125 74.21875 31.78125 74.21875 
z
" id="DejaVuSans-48"/>
      </defs>
      <g transform="translate(348.576485 322.182437)scale(0.1 -0.1)">
       <use xlink:href="#DejaVuSans-49"/>
       <use x="63.623047" xlink:href="#DejaVuSans-48"/>
      </g>
     </g>
    </g>
    <g id="text_6">
     <!-- Range/m -->
     <defs>
      <path d="M 44.390625 34.1875 
Q 47.5625 33.109375 50.5625 29.59375 
Q 53.5625 26.078125 56.59375 19.921875 
L 66.609375 0 
L 56 0 
L 46.6875 18.703125 
Q 43.0625 26.03125 39.671875 28.421875 
Q 36.28125 30.8125 30.421875 30.8125 
L 19.671875 30.8125 
L 19.671875 0 
L 9.8125 0 
L 9.8125 72.90625 
L 32.078125 72.90625 
Q 44.578125 72.90625 50.734375 67.671875 
Q 56.890625 62.453125 56.890625 51.90625 
Q 56.890625 45.015625 53.6875 40.46875 
Q 50.484375 35.9375 44.390625 34.1875 
z
M 19.671875 64.796875 
L 19.671875 38.921875 
L 32.078125 38.921875 
Q 39.203125 38.921875 42.84375 42.21875 
Q 46.484375 45.515625 46.484375 51.90625 
Q 46.484375 58.296875 42.84375 61.546875 
Q 39.203125 64.796875 32.078125 64.796875 
z
" id="DejaVuSans-82"/>
      <path d="M 34.28125 27.484375 
Q 23.390625 27.484375 19.1875 25 
Q 14.984375 22.515625 14.984375 16.5 
Q 14.984375 11.71875 18.140625 8.90625 
Q 21.296875 6.109375 26.703125 6.109375 
Q 34.1875 6.109375 38.703125 11.40625 
Q 43.21875 16.703125 43.21875 25.484375 
L 43.21875 27.484375 
z
M 52.203125 31.203125 
L 52.203125 0 
L 43.21875 0 
L 43.21875 8.296875 
Q 40.140625 3.328125 35.546875 0.953125 
Q 30.953125 -1.421875 24.3125 -1.421875 
Q 15.921875 -1.421875 10.953125 3.296875 
Q 6 8.015625 6 15.921875 
Q 6 25.140625 12.171875 29.828125 
Q 18.359375 34.515625 30.609375 34.515625 
L 43.21875 34.515625 
L 43.21875 35.40625 
Q 43.21875 41.609375 39.140625 45 
Q 35.0625 48.390625 27.6875 48.390625 
Q 23 48.390625 18.546875 47.265625 
Q 14.109375 46.140625 10.015625 43.890625 
L 10.015625 52.203125 
Q 14.9375 54.109375 19.578125 55.046875 
Q 24.21875 56 28.609375 56 
Q 40.484375 56 46.34375 49.84375 
Q 52.203125 43.703125 52.203125 31.203125 
z
" id="DejaVuSans-97"/>
      <path d="M 54.890625 33.015625 
L 54.890625 0 
L 45.90625 0 
L 45.90625 32.71875 
Q 45.90625 40.484375 42.875 44.328125 
Q 39.84375 48.1875 33.796875 48.1875 
Q 26.515625 48.1875 22.3125 43.546875 
Q 18.109375 38.921875 18.109375 30.90625 
L 18.109375 0 
L 9.078125 0 
L 9.078125 54.6875 
L 18.109375 54.6875 
L 18.109375 46.1875 
Q 21.34375 51.125 25.703125 53.5625 
Q 30.078125 56 35.796875 56 
Q 45.21875 56 50.046875 50.171875 
Q 54.890625 44.34375 54.890625 33.015625 
z
" id="DejaVuSans-110"/>
      <path d="M 45.40625 27.984375 
Q 45.40625 37.75 41.375 43.109375 
Q 37.359375 48.484375 30.078125 48.484375 
Q 22.859375 48.484375 18.828125 43.109375 
Q 14.796875 37.75 14.796875 27.984375 
Q 14.796875 18.265625 18.828125 12.890625 
Q 22.859375 7.515625 30.078125 7.515625 
Q 37.359375 7.515625 41.375 12.890625 
Q 45.40625 18.265625 45.40625 27.984375 
z
M 54.390625 6.78125 
Q 54.390625 -7.171875 48.1875 -13.984375 
Q 42 -20.796875 29.203125 -20.796875 
Q 24.46875 -20.796875 20.265625 -20.09375 
Q 16.0625 -19.390625 12.109375 -17.921875 
L 12.109375 -9.1875 
Q 16.0625 -11.328125 19.921875 -12.34375 
Q 23.78125 -13.375 27.78125 -13.375 
Q 36.625 -13.375 41.015625 -8.765625 
Q 45.40625 -4.15625 45.40625 5.171875 
L 45.40625 9.625 
Q 42.625 4.78125 38.28125 2.390625 
Q 33.9375 0 27.875 0 
Q 17.828125 0 11.671875 7.65625 
Q 5.515625 15.328125 5.515625 27.984375 
Q 5.515625 40.671875 11.671875 48.328125 
Q 17.828125 56 27.875 56 
Q 33.9375 56 38.28125 53.609375 
Q 42.625 51.21875 45.40625 46.390625 
L 45.40625 54.6875 
L 54.390625 54.6875 
z
" id="DejaVuSans-103"/>
      <path d="M 56.203125 29.59375 
L 56.203125 25.203125 
L 14.890625 25.203125 
Q 15.484375 15.921875 20.484375 11.0625 
Q 25.484375 6.203125 34.421875 6.203125 
Q 39.59375 6.203125 44.453125 7.46875 
Q 49.3125 8.734375 54.109375 11.28125 
L 54.109375 2.78125 
Q 49.265625 0.734375 44.1875 -0.34375 
Q 39.109375 -1.421875 33.890625 -1.421875 
Q 20.796875 -1.421875 13.15625 6.1875 
Q 5.515625 13.8125 5.515625 26.8125 
Q 5.515625 40.234375 12.765625 48.109375 
Q 20.015625 56 32.328125 56 
Q 43.359375 56 49.78125 48.890625 
Q 56.203125 41.796875 56.203125 29.59375 
z
M 47.21875 32.234375 
Q 47.125 39.59375 43.09375 43.984375 
Q 39.0625 48.390625 32.421875 48.390625 
Q 24.90625 48.390625 20.390625 44.140625 
Q 15.875 39.890625 15.1875 32.171875 
z
" id="DejaVuSans-101"/>
      <path d="M 25.390625 72.90625 
L 33.6875 72.90625 
L 8.296875 -9.28125 
L 0 -9.28125 
z
" id="DejaVuSans-47"/>
      <path d="M 52 44.1875 
Q 55.375 50.25 60.0625 53.125 
Q 64.75 56 71.09375 56 
Q 79.640625 56 84.28125 50.015625 
Q 88.921875 44.046875 88.921875 33.015625 
L 88.921875 0 
L 79.890625 0 
L 79.890625 32.71875 
Q 79.890625 40.578125 77.09375 44.375 
Q 74.3125 48.1875 68.609375 48.1875 
Q 61.625 48.1875 57.5625 43.546875 
Q 53.515625 38.921875 53.515625 30.90625 
L 53.515625 0 
L 44.484375 0 
L 44.484375 32.71875 
Q 44.484375 40.625 41.703125 44.40625 
Q 38.921875 48.1875 33.109375 48.1875 
Q 26.21875 48.1875 22.15625 43.53125 
Q 18.109375 38.875 18.109375 30.90625 
L 18.109375 0 
L 9.078125 0 
L 9.078125 54.6875 
L 18.109375 54.6875 
L 18.109375 46.1875 
Q 21.1875 51.21875 25.484375 53.609375 
Q 29.78125 56 35.6875 56 
Q 41.65625 56 45.828125 52.96875 
Q 50 49.953125 52 44.1875 
z
" id="DejaVuSans-109"/>
     </defs>
     <g transform="translate(213.649062 335.860562)scale(0.1 -0.1)">
      <use xlink:href="#DejaVuSans-82"/>
      <use x="69.451172" xlink:href="#DejaVuSans-97"/>
      <use x="130.730469" xlink:href="#DejaVuSans-110"/>
      <use x="194.109375" xlink:href="#DejaVuSans-103"/>
      <use x="257.585938" xlink:href="#DejaVuSans-101"/>
      <use x="319.109375" xlink:href="#DejaVuSans-47"/>
      <use x="352.800781" xlink:href="#DejaVuSans-109"/>
     </g>
    </g>
   </g>
   <g id="matplotlib.axis_2">
    <g id="ytick_1">
     <g id="line2d_6">
      <defs>
       <path d="M 0 0 
L -3.5 0 
" id="m659f1a8789" style="stroke:#000000;stroke-width:0.8;"/>
      </defs>
      <g>
       <use style="stroke:#000000;stroke-width:0.8;" x="57.6" xlink:href="#m659f1a8789" y="279.938548"/>
      </g>
     </g>
     <g id="text_7">
      <!-- 1.0 -->
      <defs>
       <path d="M 10.59375 35.5 
L 73.1875 35.5 
L 73.1875 27.203125 
L 10.59375 27.203125 
z
" id="DejaVuSans-8722"/>
       <path d="M 10.6875 12.40625 
L 21 12.40625 
L 21 0 
L 10.6875 0 
z
" id="DejaVuSans-46"/>
      </defs>
      <g transform="translate(26.317187 283.737766)scale(0.1 -0.1)">
       <use xlink:href="#DejaVuSans-8722"/>
       <use x="83.789062" xlink:href="#DejaVuSans-49"/>
       <use x="147.412109" xlink:href="#DejaVuSans-46"/>
       <use x="179.199219" xlink:href="#DejaVuSans-48"/>
      </g>
     </g>
    </g>
    <g id="ytick_2">
     <g id="line2d_7">
      <g>
       <use style="stroke:#000000;stroke-width:0.8;" x="57.6" xlink:href="#m659f1a8789" y="227.905274"/>
      </g>
     </g>
     <g id="text_8">
      <!-- 0.5 -->
      <defs>
       <path d="M 10.796875 72.90625 
L 49.515625 72.90625 
L 49.515625 64.59375 
L 19.828125 64.59375 
L 19.828125 46.734375 
Q 21.96875 47.46875 24.109375 47.828125 
Q 26.265625 48.1875 28.421875 48.1875 
Q 40.625 48.1875 47.75 41.5 
Q 54.890625 34.8125 54.890625 23.390625 
Q 54.890625 11.625 47.5625 5.09375 
Q 40.234375 -1.421875 26.90625 -1.421875 
Q 22.3125 -1.421875 17.546875 -0.640625 
Q 12.796875 0.140625 7.71875 1.703125 
L 7.71875 11.625 
Q 12.109375 9.234375 16.796875 8.0625 
Q 21.484375 6.890625 26.703125 6.890625 
Q 35.15625 6.890625 40.078125 11.328125 
Q 45.015625 15.765625 45.015625 23.390625 
Q 45.015625 31 40.078125 35.4375 
Q 35.15625 39.890625 26.703125 39.890625 
Q 22.75 39.890625 18.8125 39.015625 
Q 14.890625 38.140625 10.796875 36.28125 
z
" id="DejaVuSans-53"/>
      </defs>
      <g transform="translate(26.317187 231.704493)scale(0.1 -0.1)">
       <use xlink:href="#DejaVuSans-8722"/>
       <use x="83.789062" xlink:href="#DejaVuSans-48"/>
       <use x="147.412109" xlink:href="#DejaVuSans-46"/>
       <use x="179.199219" xlink:href="#DejaVuSans-53"/>
      </g>
     </g>
    </g>
    <g id="ytick_3">
     <g id="line2d_8">
      <g>
       <use style="stroke:#000000;stroke-width:0.8;" x="57.6" xlink:href="#m659f1a8789" y="175.872"/>
      </g>
     </g>
     <g id="text_9">
      <!-- 0.0 -->
      <g transform="translate(34.696875 179.671219)scale(0.1 -0.1)">
       <use xlink:href="#DejaVuSans-48"/>
       <use x="63.623047" xlink:href="#DejaVuSans-46"/>
       <use x="95.410156" xlink:href="#DejaVuSans-48"/>
      </g>
     </g>
    </g>
    <g id="ytick_4">
     <g id="line2d_9">
      <g>
       <use style="stroke:#000000;stroke-width:0.8;" x="57.6" xlink:href="#m659f1a8789" y="123.838726"/>
      </g>
     </g>
     <g id="text_10">
      <!-- 0.5 -->
      <g transform="translate(34.696875 127.637945)scale(0.1 -0.1)">
       <use xlink:href="#DejaVuSans-48"/>
       <use x="63.623047" xlink:href="#DejaVuSans-46"/>
       <use x="95.410156" xlink:href="#DejaVuSans-53"/>
      </g>
     </g>
    </g>
    <g id="ytick_5">
     <g id="line2d_10">
      <g>
       <use style="stroke:#000000;stroke-width:0.8;" x="57.6" xlink:href="#m659f1a8789" y="71.805452"/>
      </g>
     </g>
     <g id="text_11">
      <!-- 1.0 -->
      <g transform="translate(34.696875 75.604671)scale(0.1 -0.1)">
       <use xlink:href="#DejaVuSans-49"/>
       <use x="63.623047" xlink:href="#DejaVuSans-46"/>
       <use x="95.410156" xlink:href="#DejaVuSans-48"/>
      </g>
     </g>
    </g>
    <g id="text_12">
     <!-- Velocity/mps -->
     <defs>
      <path d="M 28.609375 0 
L 0.78125 72.90625 
L 11.078125 72.90625 
L 34.1875 11.53125 
L 57.328125 72.90625 
L 67.578125 72.90625 
L 39.796875 0 
z
" id="DejaVuSans-86"/>
      <path d="M 9.421875 75.984375 
L 18.40625 75.984375 
L 18.40625 0 
L 9.421875 0 
z
" id="DejaVuSans-108"/>
      <path d="M 30.609375 48.390625 
Q 23.390625 48.390625 19.1875 42.75 
Q 14.984375 37.109375 14.984375 27.296875 
Q 14.984375 17.484375 19.15625 11.84375 
Q 23.34375 6.203125 30.609375 6.203125 
Q 37.796875 6.203125 41.984375 11.859375 
Q 46.1875 17.53125 46.1875 27.296875 
Q 46.1875 37.015625 41.984375 42.703125 
Q 37.796875 48.390625 30.609375 48.390625 
z
M 30.609375 56 
Q 42.328125 56 49.015625 48.375 
Q 55.71875 40.765625 55.71875 27.296875 
Q 55.71875 13.875 49.015625 6.21875 
Q 42.328125 -1.421875 30.609375 -1.421875 
Q 18.84375 -1.421875 12.171875 6.21875 
Q 5.515625 13.875 5.515625 27.296875 
Q 5.515625 40.765625 12.171875 48.375 
Q 18.84375 56 30.609375 56 
z
" id="DejaVuSans-111"/>
      <path d="M 48.78125 52.59375 
L 48.78125 44.1875 
Q 44.96875 46.296875 41.140625 47.34375 
Q 37.3125 48.390625 33.40625 48.390625 
Q 24.65625 48.390625 19.8125 42.84375 
Q 14.984375 37.3125 14.984375 27.296875 
Q 14.984375 17.28125 19.8125 11.734375 
Q 24.65625 6.203125 33.40625 6.203125 
Q 37.3125 6.203125 41.140625 7.25 
Q 44.96875 8.296875 48.78125 10.40625 
L 48.78125 2.09375 
Q 45.015625 0.34375 40.984375 -0.53125 
Q 36.96875 -1.421875 32.421875 -1.421875 
Q 20.0625 -1.421875 12.78125 6.34375 
Q 5.515625 14.109375 5.515625 27.296875 
Q 5.515625 40.671875 12.859375 48.328125 
Q 20.21875 56 33.015625 56 
Q 37.15625 56 41.109375 55.140625 
Q 45.0625 54.296875 48.78125 52.59375 
z
" id="DejaVuSans-99"/>
      <path d="M 9.421875 54.6875 
L 18.40625 54.6875 
L 18.40625 0 
L 9.421875 0 
z
M 9.421875 75.984375 
L 18.40625 75.984375 
L 18.40625 64.59375 
L 9.421875 64.59375 
z
" id="DejaVuSans-105"/>
      <path d="M 18.3125 70.21875 
L 18.3125 54.6875 
L 36.8125 54.6875 
L 36.8125 47.703125 
L 18.3125 47.703125 
L 18.3125 18.015625 
Q 18.3125 11.328125 20.140625 9.421875 
Q 21.96875 7.515625 27.59375 7.515625 
L 36.8125 7.515625 
L 36.8125 0 
L 27.59375 0 
Q 17.1875 0 13.234375 3.875 
Q 9.28125 7.765625 9.28125 18.015625 
L 9.28125 47.703125 
L 2.6875 47.703125 
L 2.6875 54.6875 
L 9.28125 54.6875 
L 9.28125 70.21875 
z
" id="DejaVuSans-116"/>
      <path d="M 32.171875 -5.078125 
Q 28.375 -14.84375 24.75 -17.8125 
Q 21.140625 -20.796875 15.09375 -20.796875 
L 7.90625 -20.796875 
L 7.90625 -13.28125 
L 13.1875 -13.28125 
Q 16.890625 -13.28125 18.9375 -11.515625 
Q 21 -9.765625 23.484375 -3.21875 
L 25.09375 0.875 
L 2.984375 54.6875 
L 12.5 54.6875 
L 29.59375 11.921875 
L 46.6875 54.6875 
L 56.203125 54.6875 
z
" id="DejaVuSans-121"/>
      <path d="M 18.109375 8.203125 
L 18.109375 -20.796875 
L 9.078125 -20.796875 
L 9.078125 54.6875 
L 18.109375 54.6875 
L 18.109375 46.390625 
Q 20.953125 51.265625 25.265625 53.625 
Q 29.59375 56 35.59375 56 
Q 45.5625 56 51.78125 48.09375 
Q 58.015625 40.1875 58.015625 27.296875 
Q 58.015625 14.40625 51.78125 6.484375 
Q 45.5625 -1.421875 35.59375 -1.421875 
Q 29.59375 -1.421875 25.265625 0.953125 
Q 20.953125 3.328125 18.109375 8.203125 
z
M 48.6875 27.296875 
Q 48.6875 37.203125 44.609375 42.84375 
Q 40.53125 48.484375 33.40625 48.484375 
Q 26.265625 48.484375 22.1875 42.84375 
Q 18.109375 37.203125 18.109375 27.296875 
Q 18.109375 17.390625 22.1875 11.75 
Q 26.265625 6.109375 33.40625 6.109375 
Q 40.53125 6.109375 44.609375 11.75 
Q 48.6875 17.390625 48.6875 27.296875 
z
" id="DejaVuSans-112"/>
      <path d="M 44.28125 53.078125 
L 44.28125 44.578125 
Q 40.484375 46.53125 36.375 47.5 
Q 32.28125 48.484375 27.875 48.484375 
Q 21.1875 48.484375 17.84375 46.4375 
Q 14.5 44.390625 14.5 40.28125 
Q 14.5 37.15625 16.890625 35.375 
Q 19.28125 33.59375 26.515625 31.984375 
L 29.59375 31.296875 
Q 39.15625 29.25 43.1875 25.515625 
Q 47.21875 21.78125 47.21875 15.09375 
Q 47.21875 7.46875 41.1875 3.015625 
Q 35.15625 -1.421875 24.609375 -1.421875 
Q 20.21875 -1.421875 15.453125 -0.5625 
Q 10.6875 0.296875 5.421875 2 
L 5.421875 11.28125 
Q 10.40625 8.6875 15.234375 7.390625 
Q 20.0625 6.109375 24.8125 6.109375 
Q 31.15625 6.109375 34.5625 8.28125 
Q 37.984375 10.453125 37.984375 14.40625 
Q 37.984375 18.0625 35.515625 20.015625 
Q 33.0625 21.96875 24.703125 23.78125 
L 21.578125 24.515625 
Q 13.234375 26.265625 9.515625 29.90625 
Q 5.8125 33.546875 5.8125 39.890625 
Q 5.8125 47.609375 11.28125 51.796875 
Q 16.75 56 26.8125 56 
Q 31.78125 56 36.171875 55.265625 
Q 40.578125 54.546875 44.28125 53.078125 
z
" id="DejaVuSans-115"/>
     </defs>
     <g transform="translate(20.2375 206.85925)rotate(-90)scale(0.1 -0.1)">
      <use xlink:href="#DejaVuSans-86"/>
      <use x="68.298828" xlink:href="#DejaVuSans-101"/>
      <use x="129.822266" xlink:href="#DejaVuSans-108"/>
      <use x="157.605469" xlink:href="#DejaVuSans-111"/>
      <use x="218.787109" xlink:href="#DejaVuSans-99"/>
      <use x="273.767578" xlink:href="#DejaVuSans-105"/>
      <use x="301.550781" xlink:href="#DejaVuSans-116"/>
      <use x="340.759766" xlink:href="#DejaVuSans-121"/>
      <use x="399.939453" xlink:href="#DejaVuSans-47"/>
      <use x="433.630859" xlink:href="#DejaVuSans-109"/>
      <use x="531.042969" xlink:href="#DejaVuSans-112"/>
      <use x="594.519531" xlink:href="#DejaVuSans-115"/>
     </g>
    </g>
   </g>
   <g id="patch_3">
    <path d="M 57.6 307.584 
L 57.6 41.472 
" style="fill:none;stroke:#000000;stroke-linecap:square;stroke-linejoin:miter;stroke-width:0.8;"/>
   </g>
   <g id="patch_4">
    <path d="M 414.72 307.584 
L 414.72 41.472 
" style="fill:none;stroke:#000000;stroke-linecap:square;stroke-linejoin:miter;stroke-width:0.8;"/>
   </g>
   <g id="patch_5">
    <path d="M 57.6 307.584 
L 414.72 307.584 
" style="fill:none;stroke:#000000;stroke-linecap:square;stroke-linejoin:miter;stroke-width:0.8;"/>
   </g>
   <g id="patch_6">
    <path d="M 57.6 41.472 
L 414.72 41.472 
" style="fill:none;stroke:#000000;stroke-linecap:square;stroke-linejoin:miter;stroke-width:0.8;"/>
   </g>
   <g id="text_13">
    <!-- Range-Doppler Map -->
    <defs>
     <path d="M 4.890625 31.390625 
L 31.203125 31.390625 
L 31.203125 23.390625 
L 4.890625 23.390625 
z
" id="DejaVuSans-45"/>
     <path d="M 19.671875 64.796875 
L 19.671875 8.109375 
L 31.59375 8.109375 
Q 46.6875 8.109375 53.6875 14.9375 
Q 60.6875 21.78125 60.6875 36.53125 
Q 60.6875 51.171875 53.6875 57.984375 
Q 46.6875 64.796875 31.59375 64.796875 
z
M 9.8125 72.90625 
L 30.078125 72.90625 
Q 51.265625 72.90625 61.171875 64.09375 
Q 71.09375 55.28125 71.09375 36.53125 
Q 71.09375 17.671875 61.125 8.828125 
Q 51.171875 0 30.078125 0 
L 9.8125 0 
z
" id="DejaVuSans-68"/>
     <path d="M 41.109375 46.296875 
Q 39.59375 47.171875 37.8125 47.578125 
Q 36.03125 48 33.890625 48 
Q 26.265625 48 22.1875 43.046875 
Q 18.109375 38.09375 18.109375 28.8125 
L 18.109375 0 
L 9.078125 0 
L 9.078125 54.6875 
L 18.109375 54.6875 
L 18.109375 46.1875 
Q 20.953125 51.171875 25.484375 53.578125 
Q 30.03125 56 36.53125 56 
Q 37.453125 56 38.578125 55.875 
Q 39.703125 55.765625 41.0625 55.515625 
z
" id="DejaVuSans-114"/>
     <path id="DejaVuSans-32"/>
     <path d="M 9.8125 72.90625 
L 24.515625 72.90625 
L 43.109375 23.296875 
L 61.8125 72.90625 
L 76.515625 72.90625 
L 76.515625 0 
L 66.890625 0 
L 66.890625 64.015625 
L 48.09375 14.015625 
L 38.1875 14.015625 
L 19.390625 64.015625 
L 19.390625 0 
L 9.8125 0 
z
" id="DejaVuSans-77"/>
    </defs>
    <g transform="translate(176.543437 35.472)scale(0.12 -0.12)">
     <use xlink:href="#DejaVuSans-82"/>
     <use x="69.451172" xlink:href="#DejaVuSans-97"/>
     <use x="130.730469" xlink:href="#DejaVuSans-110"/>
     <use x="194.109375" xlink:href="#DejaVuSans-103"/>
     <use x="257.585938" xlink:href="#DejaVuSans-101"/>
     <use x="319.109375" xlink:href="#DejaVuSans-45"/>
     <use x="355.193359" xlink:href="#DejaVuSans-68"/>
     <use x="432.195312" xlink:href="#DejaVuSans-111"/>
     <use x="493.376953" xlink:href="#DejaVuSans-112"/>
     <use x="556.853516" xlink:href="#DejaVuSans-112"/>
     <use x="620.330078" xlink:href="#DejaVuSans-108"/>
     <use x="648.113281" xlink:href="#DejaVuSans-101"/>
     <use x="709.636719" xlink:href="#DejaVuSans-114"/>
     <use x="750.75" xlink:href="#DejaVuSans-32"/>
     <use x="782.537109" xlink:href="#DejaVuSans-77"/>
     <use x="868.816406" xlink:href="#DejaVuSans-97"/>
     <use x="930.095703" xlink:href="#DejaVuSans-112"/>
    </g>
   </g>
  </g>
 </g>
 <defs>
  <clipPath id="pdbe952059b">
   <rect height="266.112" width="357.12" x="57.6" y="41.472"/>
  </clipPath>
 </defs>
</svg>
